<?xml version="1.0" encoding="UTF-8"?>
<svg xmlns="http://www.w3.org/2000/svg" version="1.1" width="500" height="500" viewBox="0 0 500 500"><rect x="0" y="0" width="500" height="500" fill="#ffffff"/><g transform="scale(17.241)"><g transform="translate(0,0)"><g><g transform="translate(3.5,3.5)"><path fill-rule="evenodd" d="M-3.5 -3.5L-3.5 3.5L3.5 3.5L3.5 -3.5ZM-2.5 -2.5L-2.5 2.5L2.5 2.5L2.5 -2.5Z" fill="#000000"/><path fill-rule="evenodd" d="M-1.5 -1.5L-1.5 1.5L1.5 1.5L1.5 -1.5Z" fill="#000000"/></g></g><g><g transform="translate(25.5,3.5)"><g transform="rotate(90)"><path fill-rule="evenodd" d="M-3.5 -3.5L-3.5 3.5L3.5 3.5L3.5 -3.5ZM-2.5 -2.5L-2.5 2.5L2.5 2.5L2.5 -2.5Z" fill="#000000"/><path fill-rule="evenodd" d="M-1.5 -1.5L-1.5 1.5L1.5 1.5L1.5 -1.5Z" fill="#000000"/></g></g></g><g><g transform="translate(3.5,25.5)"><g transform="rotate(-90)"><path fill-rule="evenodd" d="M-3.5 -3.5L-3.5 3.5L3.5 3.5L3.5 -3.5ZM-2.5 -2.5L-2.5 2.5L2.5 2.5L2.5 -2.5Z" fill="#000000"/><path fill-rule="evenodd" d="M-1.5 -1.5L-1.5 1.5L1.5 1.5L1.5 -1.5Z" fill="#000000"/></g></g></g><path fill-rule="evenodd" d="M8 0L8 1L10 1L10 0ZM14 0L14 1L13 1L13 2L11 2L11 4L10 4L10 3L9 3L9 2L8 2L8 5L9 5L9 6L8 6L8 7L9 7L9 8L8 8L8 9L9 9L9 10L6 10L6 9L7 9L7 8L6 8L6 9L4 9L4 8L0 8L0 10L2 10L2 11L4 11L4 12L0 12L0 13L2 13L2 14L3 14L3 15L0 15L0 17L1 17L1 16L3 16L3 17L4 17L4 19L5 19L5 21L8 21L8 22L9 22L9 23L10 23L10 20L11 20L11 21L12 21L12 22L11 22L11 23L13 23L13 24L12 24L12 25L11 25L11 24L9 24L9 25L8 25L8 29L10 29L10 27L9 27L9 26L10 26L10 25L11 25L11 28L12 28L12 26L13 26L13 27L14 27L14 26L13 26L13 24L14 24L14 22L13 22L13 20L14 20L14 21L15 21L15 22L16 22L16 21L18 21L18 23L19 23L19 24L18 24L18 25L17 25L17 23L15 23L15 27L16 27L16 28L18 28L18 29L24 29L24 28L19 28L19 24L20 24L20 25L21 25L21 27L23 27L23 26L24 26L24 25L25 25L25 27L27 27L27 26L28 26L28 28L25 28L25 29L28 29L28 28L29 28L29 26L28 26L28 25L29 25L29 24L27 24L27 25L25 25L25 24L26 24L26 23L25 23L25 20L26 20L26 19L28 19L28 21L27 21L27 23L28 23L28 21L29 21L29 17L28 17L28 16L27 16L27 17L26 17L26 16L25 16L25 15L26 15L26 13L27 13L27 11L28 11L28 10L27 10L27 11L26 11L26 13L25 13L25 12L24 12L24 11L25 11L25 10L26 10L26 9L27 9L27 8L24 8L24 11L23 11L23 13L22 13L22 14L21 14L21 13L20 13L20 14L18 14L18 12L19 12L19 9L20 9L20 12L21 12L21 11L22 11L22 10L23 10L23 9L22 9L22 8L20 8L20 7L21 7L21 2L20 2L20 4L17 4L17 6L16 6L16 7L15 7L15 5L16 5L16 2L15 2L15 3L14 3L14 1L15 1L15 0ZM16 0L16 1L17 1L17 0ZM18 0L18 2L19 2L19 0ZM20 0L20 1L21 1L21 0ZM12 3L12 5L10 5L10 6L9 6L9 7L10 7L10 8L9 8L9 9L10 9L10 10L9 10L9 12L8 12L8 11L6 11L6 10L5 10L5 11L6 11L6 12L5 12L5 14L8 14L8 15L9 15L9 14L10 14L10 17L6 17L6 16L7 16L7 15L5 15L5 18L8 18L8 19L9 19L9 20L8 20L8 21L9 21L9 20L10 20L10 19L9 19L9 18L12 18L12 17L14 17L14 16L15 16L15 18L16 18L16 19L17 19L17 18L18 18L18 19L20 19L20 20L21 20L21 19L23 19L23 20L25 20L25 19L26 19L26 18L25 18L25 16L24 16L24 18L23 18L23 16L22 16L22 15L21 15L21 14L20 14L20 16L19 16L19 18L18 18L18 17L17 17L17 18L16 18L16 16L18 16L18 15L16 15L16 14L17 14L17 12L18 12L18 9L19 9L19 7L20 7L20 6L19 6L19 5L18 5L18 6L17 6L17 7L18 7L18 8L15 8L15 9L14 9L14 8L13 8L13 7L14 7L14 5L15 5L15 4L14 4L14 3ZM12 5L12 7L11 7L11 6L10 6L10 7L11 7L11 8L12 8L12 7L13 7L13 5ZM18 6L18 7L19 7L19 6ZM28 8L28 9L29 9L29 8ZM2 9L2 10L4 10L4 9ZM15 9L15 10L16 10L16 9ZM21 9L21 10L22 10L22 9ZM13 10L13 11L11 11L11 13L10 13L10 12L9 12L9 13L8 13L8 14L9 14L9 13L10 13L10 14L12 14L12 16L11 16L11 17L12 17L12 16L14 16L14 15L15 15L15 13L16 13L16 12L15 12L15 11L14 11L14 10ZM6 12L6 13L7 13L7 12ZM12 12L12 14L13 14L13 15L14 15L14 12ZM3 13L3 14L4 14L4 13ZM28 13L28 14L27 14L27 15L29 15L29 13ZM23 14L23 15L24 15L24 14ZM3 15L3 16L4 16L4 15ZM20 16L20 17L21 17L21 16ZM0 18L0 19L1 19L1 18ZM2 18L2 20L1 20L1 21L2 21L2 20L3 20L3 21L4 21L4 20L3 20L3 18ZM20 18L20 19L21 19L21 18ZM6 19L6 20L7 20L7 19ZM11 19L11 20L12 20L12 19ZM15 20L15 21L16 21L16 20ZM18 20L18 21L19 21L19 20ZM21 21L21 24L24 24L24 21ZM19 22L19 23L20 23L20 22ZM22 22L22 23L23 23L23 22ZM22 25L22 26L23 26L23 25ZM14 28L14 29L15 29L15 28Z" fill="#000000"/></g></g></svg>
