<?xml version="1.0" encoding="UTF-8"?>
<svg xmlns="http://www.w3.org/2000/svg" version="1.1" width="500" height="500" viewBox="0 0 500 500"><rect x="0" y="0" width="500" height="500" fill="#ffffff"/><g transform="scale(20)"><g transform="translate(0,0)"><g><g transform="translate(3.5,3.5)"><path fill-rule="evenodd" d="M-3.5 -3.5L-3.5 3.5L3.5 3.5L3.5 -3.5ZM-2.5 -2.5L-2.5 2.5L2.5 2.5L2.5 -2.5Z" fill="#000000"/><path fill-rule="evenodd" d="M-1.5 -1.5L-1.5 1.5L1.5 1.5L1.5 -1.5Z" fill="#000000"/></g></g><g><g transform="translate(21.5,3.5)"><g transform="rotate(90)"><path fill-rule="evenodd" d="M-3.5 -3.5L-3.5 3.5L3.5 3.5L3.5 -3.5ZM-2.5 -2.5L-2.5 2.5L2.5 2.5L2.5 -2.5Z" fill="#000000"/><path fill-rule="evenodd" d="M-1.5 -1.5L-1.5 1.5L1.5 1.5L1.5 -1.5Z" fill="#000000"/></g></g></g><g><g transform="translate(3.5,21.5)"><g transform="rotate(-90)"><path fill-rule="evenodd" d="M-3.5 -3.5L-3.5 3.5L3.5 3.5L3.5 -3.5ZM-2.5 -2.5L-2.5 2.5L2.5 2.5L2.5 -2.5Z" fill="#000000"/><path fill-rule="evenodd" d="M-1.5 -1.5L-1.5 1.5L1.5 1.5L1.5 -1.5Z" fill="#000000"/></g></g></g><path fill-rule="evenodd" d="M9 0L9 1L8 1L8 2L9 2L9 3L8 3L8 4L10 4L10 7L11 7L11 4L12 4L12 5L13 5L13 6L12 6L12 9L14 9L14 10L15 10L15 11L16 11L16 12L15 12L15 14L14 14L14 13L12 13L12 11L13 11L13 10L11 10L11 11L10 11L10 9L11 9L11 8L6 8L6 9L7 9L7 10L6 10L6 11L7 11L7 12L6 12L6 13L7 13L7 12L8 12L8 13L9 13L9 15L8 15L8 14L5 14L5 12L4 12L4 11L5 11L5 10L3 10L3 12L2 12L2 10L0 10L0 11L1 11L1 12L0 12L0 17L1 17L1 12L2 12L2 13L4 13L4 14L3 14L3 15L2 15L2 17L3 17L3 15L7 15L7 16L6 16L6 17L7 17L7 16L9 16L9 15L11 15L11 13L12 13L12 14L13 14L13 15L12 15L12 17L13 17L13 16L14 16L14 17L16 17L16 18L15 18L15 19L14 19L14 20L15 20L15 21L12 21L12 19L13 19L13 18L11 18L11 16L10 16L10 18L9 18L9 17L8 17L8 19L10 19L10 18L11 18L11 20L10 20L10 21L9 21L9 20L8 20L8 25L9 25L9 24L11 24L11 23L10 23L10 22L11 22L11 21L12 21L12 22L13 22L13 23L12 23L12 25L13 25L13 24L14 24L14 25L15 25L15 24L16 24L16 23L15 23L15 22L17 22L17 21L18 21L18 23L17 23L17 25L18 25L18 24L19 24L19 25L20 25L20 24L21 24L21 23L23 23L23 24L22 24L22 25L25 25L25 24L24 24L24 23L25 23L25 21L23 21L23 22L21 22L21 20L23 20L23 19L25 19L25 14L24 14L24 15L23 15L23 14L20 14L20 15L23 15L23 16L24 16L24 18L21 18L21 17L22 17L22 16L17 16L17 14L18 14L18 15L19 15L19 12L20 12L20 11L22 11L22 13L25 13L25 10L24 10L24 8L23 8L23 10L20 10L20 8L19 8L19 9L18 9L18 8L17 8L17 6L16 6L16 8L15 8L15 6L14 6L14 5L15 5L15 4L16 4L16 5L17 5L17 3L15 3L15 2L14 2L14 1L15 1L15 0L14 0L14 1L11 1L11 2L10 2L10 0ZM16 0L16 2L17 2L17 0ZM12 2L12 4L13 4L13 5L14 5L14 4L13 4L13 2ZM10 3L10 4L11 4L11 3ZM8 5L8 7L9 7L9 5ZM13 6L13 7L14 7L14 6ZM0 8L0 9L5 9L5 8ZM16 8L16 9L17 9L17 10L18 10L18 9L17 9L17 8ZM21 8L21 9L22 9L22 8ZM8 9L8 10L7 10L7 11L9 11L9 9ZM19 10L19 11L17 11L17 12L16 12L16 14L15 14L15 15L14 15L14 16L16 16L16 14L17 14L17 12L19 12L19 11L20 11L20 10ZM23 10L23 12L24 12L24 10ZM10 12L10 13L11 13L11 12ZM17 17L17 20L20 20L20 17ZM18 18L18 19L19 19L19 18ZM15 19L15 20L16 20L16 19ZM23 22L23 23L24 23L24 22ZM14 23L14 24L15 24L15 23ZM19 23L19 24L20 24L20 23Z" fill="#000000"/></g></g></svg>
