<?xml version="1.0" encoding="UTF-8"?>
<svg xmlns="http://www.w3.org/2000/svg" version="1.1" width="500" height="500" viewBox="0 0 500 500"><rect x="0" y="0" width="500" height="500" fill="#ffffff"/><g transform="scale(17.241)"><g transform="translate(0,0)"><g><g transform="translate(3.5,3.5)"><path fill-rule="evenodd" d="M-3.5 -3.5L-3.5 3.5L3.5 3.5L3.5 -3.5ZM-2.5 -2.5L-2.5 2.5L2.5 2.5L2.5 -2.5Z" fill="#000000"/><path fill-rule="evenodd" d="M-1.5 -1.5L-1.5 1.5L1.5 1.5L1.5 -1.5Z" fill="#000000"/></g></g><g><g transform="translate(25.5,3.5)"><g transform="rotate(90)"><path fill-rule="evenodd" d="M-3.5 -3.5L-3.5 3.5L3.5 3.5L3.5 -3.5ZM-2.5 -2.5L-2.5 2.5L2.5 2.5L2.5 -2.5Z" fill="#000000"/><path fill-rule="evenodd" d="M-1.5 -1.5L-1.5 1.5L1.5 1.5L1.5 -1.5Z" fill="#000000"/></g></g></g><g><g transform="translate(3.5,25.5)"><g transform="rotate(-90)"><path fill-rule="evenodd" d="M-3.5 -3.5L-3.5 3.5L3.5 3.5L3.5 -3.5ZM-2.5 -2.5L-2.5 2.5L2.5 2.5L2.5 -2.5Z" fill="#000000"/><path fill-rule="evenodd" d="M-1.5 -1.5L-1.5 1.5L1.5 1.5L1.5 -1.5Z" fill="#000000"/></g></g></g><path fill-rule="evenodd" d="M9 0L9 1L8 1L8 2L9 2L9 3L8 3L8 4L10 4L10 7L11 7L11 4L12 4L12 5L13 5L13 6L12 6L12 9L13 9L13 8L14 8L14 9L15 9L15 10L17 10L17 11L16 11L16 12L17 12L17 13L18 13L18 14L17 14L17 16L16 16L16 13L12 13L12 11L13 11L13 10L11 10L11 11L10 11L10 9L11 9L11 8L6 8L6 9L9 9L9 10L5 10L5 11L4 11L4 10L2 10L2 9L5 9L5 8L0 8L0 11L1 11L1 12L0 12L0 13L1 13L1 12L2 12L2 13L3 13L3 14L2 14L2 15L1 15L1 14L0 14L0 15L1 15L1 16L0 16L0 21L1 21L1 18L2 18L2 21L4 21L4 20L6 20L6 21L8 21L8 23L9 23L9 21L10 21L10 20L11 20L11 21L12 21L12 22L13 22L13 23L12 23L12 25L13 25L13 24L14 24L14 25L15 25L15 27L14 27L14 28L15 28L15 29L16 29L16 28L15 28L15 27L20 27L20 28L18 28L18 29L23 29L23 28L22 28L22 27L24 27L24 25L25 25L25 23L26 23L26 25L29 25L29 23L27 23L27 22L28 22L28 20L25 20L25 19L27 19L27 18L26 18L26 17L25 17L25 15L27 15L27 16L29 16L29 14L28 14L28 13L27 13L27 14L26 14L26 13L25 13L25 12L26 12L26 11L27 11L27 10L28 10L28 8L27 8L27 10L26 10L26 8L25 8L25 9L24 9L24 8L23 8L23 9L24 9L24 10L23 10L23 11L22 11L22 10L21 10L21 9L22 9L22 8L21 8L21 6L20 6L20 7L19 7L19 6L18 6L18 5L19 5L19 4L18 4L18 3L20 3L20 4L21 4L21 0L20 0L20 2L19 2L19 0L18 0L18 1L17 1L17 0L15 0L15 1L17 1L17 2L16 2L16 4L12 4L12 2L13 2L13 1L11 1L11 2L10 2L10 0ZM14 2L14 3L15 3L15 2ZM10 3L10 4L11 4L11 3ZM16 4L16 5L18 5L18 4ZM8 5L8 7L9 7L9 5ZM13 6L13 7L14 7L14 8L15 8L15 7L16 7L16 9L17 9L17 10L18 10L18 11L17 11L17 12L19 12L19 13L20 13L20 14L18 14L18 15L21 15L21 16L22 16L22 17L21 17L21 20L22 20L22 19L25 19L25 17L24 17L24 15L25 15L25 14L24 14L24 11L25 11L25 10L24 10L24 11L23 11L23 13L22 13L22 12L19 12L19 11L21 11L21 10L20 10L20 8L19 8L19 7L18 7L18 6L17 6L17 7L16 7L16 6L15 6L15 7L14 7L14 6ZM18 8L18 10L19 10L19 8ZM6 11L6 12L4 12L4 13L6 13L6 14L7 14L7 15L6 15L6 16L3 16L3 15L5 15L5 14L3 14L3 15L2 15L2 16L1 16L1 17L2 17L2 18L4 18L4 17L6 17L6 18L5 18L5 19L6 19L6 20L7 20L7 19L8 19L8 20L10 20L10 18L13 18L13 19L12 19L12 21L15 21L15 20L16 20L16 22L18 22L18 23L14 23L14 24L16 24L16 26L18 26L18 24L19 24L19 25L20 25L20 24L19 24L19 23L20 23L20 20L18 20L18 21L17 21L17 19L15 19L15 17L14 17L14 16L15 16L15 15L14 15L14 16L13 16L13 17L12 17L12 15L13 15L13 14L12 14L12 13L11 13L11 12L10 12L10 13L11 13L11 17L10 17L10 18L9 18L9 19L8 19L8 18L7 18L7 17L9 17L9 16L10 16L10 15L9 15L9 16L7 16L7 15L8 15L8 12L9 12L9 11L8 11L8 12L7 12L7 11ZM14 11L14 12L15 12L15 11ZM28 11L28 12L29 12L29 11ZM6 12L6 13L7 13L7 12ZM23 14L23 15L22 15L22 16L23 16L23 15L24 15L24 14ZM2 16L2 17L3 17L3 16ZM6 16L6 17L7 17L7 16ZM18 16L18 17L16 17L16 18L19 18L19 19L20 19L20 16ZM28 17L28 19L29 19L29 17ZM6 18L6 19L7 19L7 18ZM14 19L14 20L15 20L15 19ZM21 21L21 24L24 24L24 21ZM25 21L25 22L27 22L27 21ZM10 22L10 23L11 23L11 22ZM22 22L22 23L23 23L23 22ZM8 24L8 29L9 29L9 25L10 25L10 26L11 26L11 28L10 28L10 29L12 29L12 27L13 27L13 26L11 26L11 24ZM22 25L22 26L23 26L23 25ZM20 26L20 27L21 27L21 26ZM26 26L26 27L25 27L25 28L24 28L24 29L27 29L27 27L28 27L28 28L29 28L29 27L28 27L28 26Z" fill="#000000"/></g></g></svg>
