<?xml version="1.0" encoding="UTF-8"?>
<svg xmlns="http://www.w3.org/2000/svg" version="1.1" width="500" height="500" viewBox="0 0 500 500"><rect x="0" y="0" width="500" height="500" fill="#ffffff"/><g transform="scale(23.81)"><g transform="translate(0,0)"><g><g transform="translate(3.5,3.5)"><path fill-rule="evenodd" d="M-3.5 -3.5L-3.5 3.5L3.5 3.5L3.5 -3.5ZM-2.5 -2.5L-2.5 2.5L2.5 2.5L2.5 -2.5Z" fill="#000000"/><path fill-rule="evenodd" d="M-1.5 -1.5L-1.5 1.5L1.5 1.5L1.5 -1.5Z" fill="#000000"/></g></g><g><g transform="translate(17.5,3.5)"><g transform="rotate(90)"><path fill-rule="evenodd" d="M-3.5 -3.5L-3.5 3.5L3.5 3.5L3.5 -3.5ZM-2.5 -2.5L-2.5 2.5L2.5 2.5L2.5 -2.5Z" fill="#000000"/><path fill-rule="evenodd" d="M-1.5 -1.5L-1.5 1.5L1.5 1.5L1.5 -1.5Z" fill="#000000"/></g></g></g><g><g transform="translate(3.5,17.5)"><g transform="rotate(-90)"><path fill-rule="evenodd" d="M-3.5 -3.5L-3.5 3.5L3.5 3.5L3.5 -3.5ZM-2.5 -2.5L-2.5 2.5L2.5 2.5L2.5 -2.5Z" fill="#000000"/><path fill-rule="evenodd" d="M-1.5 -1.5L-1.5 1.5L1.5 1.5L1.5 -1.5Z" fill="#000000"/></g></g></g><path fill-rule="evenodd" d="M9 0L9 1L8 1L8 2L9 2L9 3L8 3L8 4L9 4L9 3L10 3L10 2L9 2L9 1L10 1L10 0ZM12 0L12 1L11 1L11 2L12 2L12 1L13 1L13 0ZM11 3L11 4L10 4L10 5L8 5L8 7L9 7L9 6L10 6L10 8L6 8L6 9L7 9L7 10L6 10L6 11L7 11L7 10L11 10L11 11L12 11L12 10L13 10L13 9L14 9L14 8L13 8L13 4L12 4L12 3ZM11 5L11 7L12 7L12 5ZM0 8L0 9L1 9L1 13L4 13L4 12L5 12L5 11L4 11L4 12L2 12L2 11L3 11L3 10L4 10L4 9L5 9L5 8ZM10 8L10 9L11 9L11 10L12 10L12 8ZM15 8L15 11L16 11L16 12L17 12L17 11L18 11L18 12L19 12L19 11L20 11L20 10L21 10L21 9L20 9L20 8L19 8L19 9L18 9L18 8L17 8L17 9L16 9L16 8ZM19 9L19 10L18 10L18 11L19 11L19 10L20 10L20 9ZM16 10L16 11L17 11L17 10ZM9 11L9 12L6 12L6 13L8 13L8 15L9 15L9 14L10 14L10 15L11 15L11 16L12 16L12 18L11 18L11 19L12 19L12 18L13 18L13 19L14 19L14 18L13 18L13 16L17 16L17 17L16 17L16 18L15 18L15 19L16 19L16 20L17 20L17 21L20 21L20 20L21 20L21 19L19 19L19 20L17 20L17 19L16 19L16 18L20 18L20 17L21 17L21 15L20 15L20 14L19 14L19 13L17 13L17 14L19 14L19 15L15 15L15 13L12 13L12 12L11 12L11 13L9 13L9 12L10 12L10 11ZM11 14L11 15L12 15L12 14ZM13 14L13 15L14 15L14 14ZM19 15L19 17L20 17L20 15ZM8 16L8 21L9 21L9 17L10 17L10 16ZM11 20L11 21L12 21L12 20ZM13 20L13 21L14 21L14 20Z" fill="#000000"/></g></g></svg>
