<?xml version="1.0" encoding="UTF-8"?>
<svg xmlns="http://www.w3.org/2000/svg" version="1.1" width="500" height="500" viewBox="0 0 500 500"><rect x="0" y="0" width="500" height="500" fill="#ffffff"/><g transform="scale(8.772)"><g transform="translate(0,0)"><g><g transform="translate(3.5,3.5)"><path fill-rule="evenodd" d="M-3.5 -3.5L-3.5 3.5L3.5 3.5L3.5 -3.5ZM-2.5 -2.5L-2.5 2.5L2.5 2.5L2.5 -2.5Z" fill="#000000"/><path fill-rule="evenodd" d="M-1.5 -1.5L-1.5 1.5L1.5 1.5L1.5 -1.5Z" fill="#000000"/></g></g><g><g transform="translate(53.5,3.5)"><g transform="rotate(90)"><path fill-rule="evenodd" d="M-3.5 -3.5L-3.5 3.5L3.5 3.5L3.5 -3.5ZM-2.5 -2.5L-2.5 2.5L2.5 2.5L2.5 -2.5Z" fill="#000000"/><path fill-rule="evenodd" d="M-1.5 -1.5L-1.5 1.5L1.5 1.5L1.5 -1.5Z" fill="#000000"/></g></g></g><g><g transform="translate(3.5,53.5)"><g transform="rotate(-90)"><path fill-rule="evenodd" d="M-3.5 -3.5L-3.5 3.5L3.5 3.5L3.5 -3.5ZM-2.5 -2.5L-2.5 2.5L2.5 2.5L2.5 -2.5Z" fill="#000000"/><path fill-rule="evenodd" d="M-1.5 -1.5L-1.5 1.5L1.5 1.5L1.5 -1.5Z" fill="#000000"/></g></g></g><path fill-rule="evenodd" d="M8 0L8 1L9 1L9 2L8 2L8 5L9 5L9 4L10 4L10 7L9 7L9 6L8 6L8 7L9 7L9 8L8 8L8 9L7 9L7 8L6 8L6 9L4 9L4 8L0 8L0 9L1 9L1 10L2 10L2 9L4 9L4 10L3 10L3 11L2 11L2 12L5 12L5 13L4 13L4 15L2 15L2 14L3 14L3 13L2 13L2 14L1 14L1 13L0 13L0 20L1 20L1 21L2 21L2 23L1 23L1 24L0 24L0 26L1 26L1 28L0 28L0 30L1 30L1 29L2 29L2 30L3 30L3 29L4 29L4 31L3 31L3 32L4 32L4 31L7 31L7 32L5 32L5 34L6 34L6 35L5 35L5 36L4 36L4 33L2 33L2 32L1 32L1 33L0 33L0 39L1 39L1 41L2 41L2 40L3 40L3 42L4 42L4 43L2 43L2 42L1 42L1 43L0 43L0 48L5 48L5 47L7 47L7 48L6 48L6 49L7 49L7 48L8 48L8 47L9 47L9 48L10 48L10 49L8 49L8 50L11 50L11 49L12 49L12 48L10 48L10 46L9 46L9 45L11 45L11 44L12 44L12 43L13 43L13 44L14 44L14 45L12 45L12 46L11 46L11 47L12 47L12 46L14 46L14 45L18 45L18 46L21 46L21 47L22 47L22 46L21 46L21 44L22 44L22 45L24 45L24 44L22 44L22 42L23 42L23 43L25 43L25 42L24 42L24 39L25 39L25 41L26 41L26 39L25 39L25 38L29 38L29 39L28 39L28 40L27 40L27 42L26 42L26 47L25 47L25 49L26 49L26 53L25 53L25 54L23 54L23 56L24 56L24 55L26 55L26 56L27 56L27 57L30 57L30 55L31 55L31 57L32 57L32 56L33 56L33 57L36 57L36 55L37 55L37 56L39 56L39 57L41 57L41 56L39 56L39 55L40 55L40 53L43 53L43 52L44 52L44 53L45 53L45 51L47 51L47 53L48 53L48 56L49 56L49 53L51 53L51 54L52 54L52 53L55 53L55 52L56 52L56 53L57 53L57 51L55 51L55 52L53 52L53 50L54 50L54 49L56 49L56 48L57 48L57 46L56 46L56 45L54 45L54 44L52 44L52 42L54 42L54 43L55 43L55 44L56 44L56 42L54 42L54 41L55 41L55 38L54 38L54 37L56 37L56 38L57 38L57 37L56 37L56 36L54 36L54 37L53 37L53 35L57 35L57 34L56 34L56 33L55 33L55 32L52 32L52 31L54 31L54 30L53 30L53 29L55 29L55 31L57 31L57 27L54 27L54 28L53 28L53 25L52 25L52 24L51 24L51 25L49 25L49 26L48 26L48 27L47 27L47 28L48 28L48 33L49 33L49 34L47 34L47 32L46 32L46 33L45 33L45 31L46 31L46 30L47 30L47 29L46 29L46 28L45 28L45 29L44 29L44 25L43 25L43 24L44 24L44 23L45 23L45 22L43 22L43 20L44 20L44 21L47 21L47 22L49 22L49 21L47 21L47 20L46 20L46 19L50 19L50 22L51 22L51 23L52 23L52 22L51 22L51 21L54 21L54 24L56 24L56 23L57 23L57 22L56 22L56 23L55 23L55 21L54 21L54 19L53 19L53 20L51 20L51 19L52 19L52 17L51 17L51 19L50 19L50 16L49 16L49 15L47 15L47 16L46 16L46 15L44 15L44 16L45 16L45 17L44 17L44 18L45 18L45 19L43 19L43 18L42 18L42 17L43 17L43 15L42 15L42 13L43 13L43 12L42 12L42 11L45 11L45 13L44 13L44 14L47 14L47 13L50 13L50 15L52 15L52 16L53 16L53 14L51 14L51 13L50 13L50 12L48 12L48 10L49 10L49 11L52 11L52 10L53 10L53 11L54 11L54 13L55 13L55 15L54 15L54 16L55 16L55 17L57 17L57 15L56 15L56 12L57 12L57 10L56 10L56 9L57 9L57 8L56 8L56 9L55 9L55 8L52 8L52 10L49 10L49 9L50 9L50 8L49 8L49 9L47 9L47 11L46 11L46 8L43 8L43 10L41 10L41 12L42 12L42 13L41 13L41 14L39 14L39 13L40 13L40 9L41 9L41 8L42 8L42 7L43 7L43 5L42 5L42 7L41 7L41 3L42 3L42 1L41 1L41 0L40 0L40 1L39 1L39 3L38 3L38 4L36 4L36 3L37 3L37 2L38 2L38 0L37 0L37 2L34 2L34 4L35 4L35 6L34 6L34 7L33 7L33 6L32 6L32 10L31 10L31 5L33 5L33 4L32 4L32 2L33 2L33 0L32 0L32 1L31 1L31 0L30 0L30 2L31 2L31 4L30 4L30 3L29 3L29 2L27 2L27 1L26 1L26 4L25 4L25 3L24 3L24 9L23 9L23 8L21 8L21 6L22 6L22 7L23 7L23 5L22 5L22 4L23 4L23 2L25 2L25 1L24 1L24 0L22 0L22 1L21 1L21 0L19 0L19 1L21 1L21 2L22 2L22 3L21 3L21 4L20 4L20 2L19 2L19 3L17 3L17 2L15 2L15 0L14 0L14 1L13 1L13 0L10 0L10 1L9 1L9 0ZM16 0L16 1L18 1L18 0ZM28 0L28 1L29 1L29 0ZM35 0L35 1L36 1L36 0ZM44 0L44 1L43 1L43 2L45 2L45 3L43 3L43 4L44 4L44 5L45 5L45 6L44 6L44 7L45 7L45 6L46 6L46 7L47 7L47 8L48 8L48 7L49 7L49 6L48 6L48 7L47 7L47 5L48 5L48 0L46 0L46 1L45 1L45 0ZM10 1L10 2L9 2L9 3L10 3L10 2L11 2L11 5L12 5L12 6L11 6L11 8L12 8L12 9L10 9L10 8L9 8L9 10L11 10L11 11L8 11L8 10L7 10L7 9L6 9L6 10L4 10L4 11L6 11L6 12L7 12L7 13L5 13L5 14L7 14L7 13L8 13L8 17L6 17L6 16L7 16L7 15L6 15L6 16L5 16L5 19L6 19L6 20L7 20L7 21L5 21L5 20L4 20L4 19L3 19L3 18L4 18L4 17L3 17L3 16L2 16L2 18L1 18L1 20L2 20L2 21L3 21L3 20L4 20L4 22L5 22L5 23L3 23L3 24L1 24L1 26L2 26L2 25L3 25L3 24L5 24L5 23L6 23L6 24L10 24L10 25L6 25L6 26L9 26L9 30L10 30L10 28L11 28L11 27L12 27L12 30L13 30L13 28L14 28L14 27L15 27L15 28L17 28L17 27L19 27L19 26L17 26L17 24L18 24L18 23L19 23L19 25L21 25L21 24L20 24L20 23L22 23L22 24L25 24L25 22L27 22L27 23L26 23L26 25L27 25L27 26L29 26L29 24L30 24L30 26L31 26L31 25L33 25L33 26L32 26L32 28L33 28L33 30L32 30L32 29L31 29L31 31L33 31L33 30L35 30L35 31L34 31L34 32L32 32L32 33L29 33L29 32L30 32L30 31L28 31L28 32L27 32L27 33L24 33L24 32L26 32L26 28L24 28L24 29L23 29L23 30L22 30L22 29L21 29L21 26L20 26L20 29L19 29L19 28L18 28L18 30L19 30L19 31L20 31L20 29L21 29L21 32L22 32L22 33L20 33L20 32L17 32L17 31L16 31L16 29L14 29L14 31L13 31L13 32L14 32L14 33L12 33L12 31L11 31L11 33L12 33L12 34L11 34L11 37L9 37L9 38L10 38L10 39L11 39L11 40L12 40L12 41L13 41L13 43L14 43L14 42L16 42L16 41L15 41L15 40L16 40L16 39L17 39L17 38L13 38L13 39L11 39L11 38L12 38L12 37L13 37L13 36L14 36L14 37L15 37L15 36L16 36L16 37L17 37L17 36L18 36L18 41L17 41L17 42L18 42L18 43L21 43L21 42L22 42L22 41L23 41L23 39L24 39L24 36L25 36L25 37L27 37L27 36L28 36L28 37L29 37L29 36L31 36L31 37L30 37L30 38L31 38L31 39L30 39L30 40L28 40L28 41L29 41L29 42L30 42L30 43L28 43L28 42L27 42L27 45L30 45L30 47L31 47L31 51L33 51L33 48L32 48L32 46L31 46L31 44L32 44L32 45L33 45L33 47L35 47L35 46L34 46L34 44L35 44L35 45L36 45L36 48L35 48L35 49L38 49L38 48L39 48L39 47L37 47L37 45L36 45L36 44L35 44L35 43L36 43L36 42L37 42L37 43L38 43L38 40L39 40L39 41L40 41L40 44L39 44L39 45L38 45L38 46L39 46L39 45L40 45L40 44L42 44L42 45L41 45L41 46L40 46L40 49L41 49L41 47L42 47L42 50L41 50L41 51L45 51L45 50L43 50L43 49L46 49L46 50L47 50L47 51L48 51L48 50L47 50L47 49L48 49L48 47L47 47L47 48L43 48L43 46L45 46L45 47L46 47L46 46L45 46L45 45L46 45L46 44L48 44L48 45L47 45L47 46L49 46L49 45L50 45L50 46L51 46L51 45L52 45L52 44L51 44L51 41L53 41L53 40L54 40L54 39L53 39L53 37L51 37L51 35L53 35L53 34L54 34L54 33L53 33L53 34L51 34L51 32L49 32L49 33L50 33L50 34L51 34L51 35L50 35L50 36L49 36L49 35L47 35L47 36L45 36L45 35L46 35L46 34L45 34L45 33L44 33L44 31L45 31L45 30L44 30L44 29L43 29L43 28L41 28L41 29L39 29L39 28L40 28L40 27L39 27L39 26L37 26L37 27L34 27L34 28L33 28L33 26L35 26L35 24L36 24L36 25L40 25L40 26L42 26L42 27L43 27L43 25L42 25L42 24L43 24L43 23L42 23L42 24L41 24L41 22L42 22L42 21L41 21L41 22L40 22L40 21L38 21L38 20L37 20L37 19L35 19L35 18L34 18L34 16L35 16L35 15L36 15L36 17L37 17L37 18L39 18L39 19L40 19L40 20L43 20L43 19L42 19L42 18L41 18L41 17L42 17L42 16L40 16L40 15L39 15L39 14L38 14L38 13L37 13L37 14L36 14L36 12L39 12L39 8L37 8L37 7L38 7L38 6L39 6L39 7L40 7L40 8L41 8L41 7L40 7L40 6L39 6L39 5L40 5L40 3L39 3L39 5L36 5L36 6L35 6L35 8L33 8L33 10L32 10L32 13L33 13L33 14L31 14L31 13L30 13L30 15L31 15L31 16L30 16L30 17L29 17L29 15L27 15L27 14L28 14L28 13L27 13L27 12L28 12L28 11L29 11L29 12L31 12L31 10L30 10L30 9L28 9L28 11L27 11L27 9L26 9L26 11L25 11L25 9L24 9L24 12L22 12L22 14L24 14L24 15L25 15L25 16L26 16L26 17L25 17L25 18L23 18L23 17L24 17L24 16L22 16L22 18L21 18L21 20L20 20L20 21L21 21L21 22L17 22L17 21L19 21L19 20L17 20L17 19L16 19L16 17L13 17L13 16L14 16L14 15L16 15L16 16L17 16L17 17L18 17L18 18L19 18L19 19L20 19L20 16L21 16L21 15L19 15L19 14L20 14L20 13L21 13L21 11L23 11L23 9L22 9L22 10L20 10L20 12L18 12L18 10L17 10L17 12L16 12L16 9L21 9L21 8L20 8L20 6L21 6L21 5L20 5L20 4L19 4L19 5L18 5L18 6L17 6L17 5L15 5L15 4L13 4L13 2L11 2L11 1ZM22 1L22 2L23 2L23 1ZM40 1L40 2L41 2L41 1ZM46 1L46 2L47 2L47 1ZM16 3L16 4L17 4L17 3ZM27 3L27 4L29 4L29 3ZM46 3L46 5L47 5L47 3ZM12 4L12 5L13 5L13 4ZM25 5L25 8L26 8L26 5ZM27 5L27 8L30 8L30 5ZM12 6L12 8L13 8L13 9L12 9L12 10L14 10L14 11L15 11L15 9L16 9L16 8L18 8L18 7L19 7L19 6L18 6L18 7L17 7L17 6L16 6L16 7L15 7L15 6L14 6L14 8L13 8L13 6ZM28 6L28 7L29 7L29 6ZM36 6L36 7L37 7L37 6ZM14 8L14 9L15 9L15 8ZM34 9L34 10L35 10L35 11L33 11L33 12L34 12L34 13L35 13L35 11L36 11L36 10L38 10L38 9ZM44 9L44 10L45 10L45 9ZM54 9L54 10L55 10L55 11L56 11L56 10L55 10L55 9ZM6 10L6 11L7 11L7 10ZM11 11L11 12L13 12L13 11ZM15 12L15 13L10 13L10 14L9 14L9 15L10 15L10 16L9 16L9 17L12 17L12 15L10 15L10 14L15 14L15 13L16 13L16 12ZM17 12L17 15L18 15L18 12ZM24 12L24 13L25 13L25 14L27 14L27 13L25 13L25 12ZM46 12L46 13L47 13L47 12ZM52 12L52 13L53 13L53 12ZM33 14L33 15L32 15L32 16L31 16L31 17L30 17L30 18L29 18L29 17L27 17L27 19L28 19L28 18L29 18L29 19L31 19L31 20L30 20L30 21L29 21L29 20L28 20L28 22L30 22L30 23L34 23L34 24L35 24L35 23L40 23L40 22L38 22L38 21L37 21L37 22L36 22L36 21L35 21L35 22L34 22L34 20L33 20L33 19L31 19L31 18L33 18L33 17L32 17L32 16L33 16L33 15L34 15L34 14ZM37 14L37 17L38 17L38 14ZM55 15L55 16L56 16L56 15ZM18 16L18 17L19 17L19 16ZM39 16L39 18L40 18L40 16ZM48 16L48 18L49 18L49 16ZM53 17L53 18L54 18L54 17ZM6 18L6 19L7 19L7 18ZM8 18L8 21L7 21L7 22L6 22L6 23L8 23L8 21L9 21L9 23L10 23L10 24L12 24L12 25L10 25L10 26L12 26L12 27L13 27L13 26L15 26L15 25L14 25L14 22L13 22L13 23L12 23L12 22L10 22L10 21L13 21L13 20L12 20L12 19L11 19L11 18L10 18L10 19L9 19L9 18ZM13 18L13 19L15 19L15 18ZM25 18L25 19L26 19L26 18ZM56 18L56 19L55 19L55 20L56 20L56 19L57 19L57 18ZM10 19L10 20L11 20L11 19ZM23 19L23 21L22 21L22 20L21 20L21 21L22 21L22 22L23 22L23 21L24 21L24 22L25 22L25 21L27 21L27 20L25 20L25 21L24 21L24 19ZM14 20L14 21L15 21L15 23L16 23L16 24L17 24L17 23L16 23L16 21L17 21L17 20ZM32 20L32 21L30 21L30 22L33 22L33 20ZM28 23L28 24L29 24L29 23ZM46 23L46 25L48 25L48 23ZM23 25L23 26L22 26L22 27L26 27L26 26L25 26L25 25ZM56 25L56 26L57 26L57 25ZM45 26L45 27L46 27L46 26ZM5 27L5 30L8 30L8 27ZM27 27L27 30L30 30L30 27ZM37 27L37 28L38 28L38 27ZM49 27L49 30L52 30L52 27ZM6 28L6 29L7 29L7 28ZM28 28L28 29L29 29L29 28ZM35 28L35 30L36 30L36 31L37 31L37 29L36 29L36 28ZM50 28L50 29L51 29L51 28ZM38 29L38 30L39 30L39 31L38 31L38 32L37 32L37 34L39 34L39 31L40 31L40 32L41 32L41 33L40 33L40 34L41 34L41 36L42 36L42 34L43 34L43 35L45 35L45 34L43 34L43 32L41 32L41 31L40 31L40 30L39 30L39 29ZM23 30L23 31L22 31L22 32L23 32L23 31L25 31L25 30ZM8 31L8 34L7 34L7 33L6 33L6 34L7 34L7 35L6 35L6 36L7 36L7 37L6 37L6 38L5 38L5 40L7 40L7 41L4 41L4 42L5 42L5 43L4 43L4 44L3 44L3 45L2 45L2 43L1 43L1 45L2 45L2 46L1 46L1 47L2 47L2 46L3 46L3 47L5 47L5 46L4 46L4 45L6 45L6 46L7 46L7 47L8 47L8 45L9 45L9 43L8 43L8 44L7 44L7 43L6 43L6 42L8 42L8 40L9 40L9 42L10 42L10 44L11 44L11 43L12 43L12 42L11 42L11 41L10 41L10 40L9 40L9 39L8 39L8 36L7 36L7 35L8 35L8 34L9 34L9 35L10 35L10 34L9 34L9 33L10 33L10 31ZM15 31L15 33L16 33L16 36L17 36L17 34L20 34L20 33L16 33L16 31ZM35 32L35 33L34 33L34 34L35 34L35 33L36 33L36 32ZM1 33L1 36L2 36L2 37L4 37L4 36L3 36L3 35L2 35L2 33ZM22 33L22 34L21 34L21 35L22 35L22 38L21 38L21 37L20 37L20 36L19 36L19 35L18 35L18 36L19 36L19 37L20 37L20 38L21 38L21 39L23 39L23 35L22 35L22 34L23 34L23 33ZM27 33L27 34L24 34L24 35L25 35L25 36L27 36L27 35L28 35L28 36L29 36L29 33ZM32 33L32 34L30 34L30 35L32 35L32 36L33 36L33 33ZM41 33L41 34L42 34L42 33ZM13 34L13 35L12 35L12 36L13 36L13 35L15 35L15 34ZM34 35L34 37L35 37L35 38L33 38L33 37L32 37L32 38L33 38L33 39L34 39L34 41L32 41L32 40L31 40L31 41L30 41L30 42L31 42L31 43L33 43L33 44L34 44L34 41L36 41L36 40L38 40L38 38L39 38L39 40L40 40L40 41L41 41L41 42L43 42L43 41L42 41L42 40L43 40L43 39L42 39L42 38L45 38L45 37L44 37L44 36L43 36L43 37L41 37L41 38L39 38L39 37L40 37L40 35L39 35L39 36L37 36L37 35ZM35 36L35 37L36 37L36 38L37 38L37 37L36 37L36 36ZM47 36L47 37L46 37L46 38L47 38L47 37L48 37L48 36ZM49 37L49 39L47 39L47 40L46 40L46 39L45 39L45 40L44 40L44 42L45 42L45 41L46 41L46 43L47 43L47 41L48 41L48 42L49 42L49 43L50 43L50 42L49 42L49 41L51 41L51 40L52 40L52 38L51 38L51 40L50 40L50 37ZM2 38L2 39L4 39L4 38ZM6 38L6 39L7 39L7 38ZM14 39L14 40L13 40L13 41L14 41L14 40L15 40L15 39ZM35 39L35 40L36 40L36 39ZM56 39L56 40L57 40L57 39ZM19 40L19 41L18 41L18 42L21 42L21 41L22 41L22 40ZM5 43L5 44L6 44L6 45L7 45L7 44L6 44L6 43ZM16 43L16 44L17 44L17 43ZM44 43L44 44L45 44L45 43ZM16 46L16 47L13 47L13 48L14 48L14 49L13 49L13 50L12 50L12 52L11 52L11 51L10 51L10 53L11 53L11 54L9 54L9 53L8 53L8 57L9 57L9 55L11 55L11 56L10 56L10 57L17 57L17 56L18 56L18 57L21 57L21 56L22 56L22 55L21 55L21 52L20 52L20 55L19 55L19 54L17 54L17 53L16 53L16 52L14 52L14 53L16 53L16 54L17 54L17 56L15 56L15 55L11 55L11 54L12 54L12 53L13 53L13 50L15 50L15 51L16 51L16 50L15 50L15 48L16 48L16 49L17 49L17 52L18 52L18 49L19 49L19 51L21 51L21 50L22 50L22 53L23 53L23 52L25 52L25 50L24 50L24 46L23 46L23 48L22 48L22 49L21 49L21 48L20 48L20 49L19 49L19 47L17 47L17 46ZM27 46L27 47L26 47L26 48L28 48L28 47L29 47L29 46ZM52 46L52 47L53 47L53 48L54 48L54 46ZM50 47L50 48L51 48L51 47ZM55 47L55 48L56 48L56 47ZM17 48L17 49L18 49L18 48ZM20 49L20 50L21 50L21 49ZM27 49L27 52L30 52L30 49ZM49 49L49 52L52 52L52 49ZM28 50L28 51L29 51L29 50ZM34 50L34 52L35 52L35 50ZM36 50L36 51L37 51L37 50ZM50 50L50 51L51 51L51 50ZM38 51L38 52L36 52L36 53L35 53L35 54L34 54L34 53L33 53L33 52L32 52L32 55L33 55L33 56L35 56L35 54L36 54L36 53L38 53L38 55L39 55L39 53L40 53L40 52L39 52L39 51ZM27 53L27 54L26 54L26 55L27 55L27 56L29 56L29 55L28 55L28 54L31 54L31 53ZM41 54L41 55L42 55L42 54ZM43 54L43 56L45 56L45 57L46 57L46 56L45 56L45 55L44 55L44 54ZM53 54L53 56L51 56L51 55L50 55L50 56L51 56L51 57L53 57L53 56L54 56L54 54ZM20 55L20 56L21 56L21 55ZM55 55L55 56L56 56L56 55Z" fill="#000000"/></g></g></svg>
