<?xml version="1.0" encoding="UTF-8"?>
<svg xmlns="http://www.w3.org/2000/svg" version="1.1" width="500" height="500" viewBox="0 0 500 500"><rect x="0" y="0" width="500" height="500" fill="#ffffff"/><g transform="scale(17.241)"><g transform="translate(0,0)"><g><g transform="translate(3.5,3.5)"><path fill-rule="evenodd" d="M-3.5 -3.5L-3.5 3.5L3.5 3.5L3.5 -3.5ZM-2.5 -2.5L-2.5 2.5L2.5 2.5L2.5 -2.5Z" fill="#000000"/><path fill-rule="evenodd" d="M-1.5 -1.5L-1.5 1.5L1.5 1.5L1.5 -1.5Z" fill="#000000"/></g></g><g><g transform="translate(25.5,3.5)"><g transform="rotate(90)"><path fill-rule="evenodd" d="M-3.5 -3.5L-3.5 3.5L3.5 3.5L3.5 -3.5ZM-2.5 -2.5L-2.5 2.5L2.5 2.5L2.5 -2.5Z" fill="#000000"/><path fill-rule="evenodd" d="M-1.5 -1.5L-1.5 1.5L1.5 1.5L1.5 -1.5Z" fill="#000000"/></g></g></g><g><g transform="translate(3.5,25.5)"><g transform="rotate(-90)"><path fill-rule="evenodd" d="M-3.5 -3.5L-3.5 3.5L3.5 3.5L3.5 -3.5ZM-2.5 -2.5L-2.5 2.5L2.5 2.5L2.5 -2.5Z" fill="#000000"/><path fill-rule="evenodd" d="M-1.5 -1.5L-1.5 1.5L1.5 1.5L1.5 -1.5Z" fill="#000000"/></g></g></g><path fill-rule="evenodd" d="M8 0L8 4L10 4L10 3L11 3L11 4L12 4L12 2L11 2L11 0ZM12 0L12 1L13 1L13 0ZM19 0L19 2L18 2L18 1L16 1L16 2L15 2L15 3L14 3L14 2L13 2L13 3L14 3L14 4L13 4L13 5L11 5L11 6L10 6L10 7L9 7L9 5L8 5L8 7L9 7L9 8L10 8L10 7L11 7L11 6L12 6L12 8L11 8L11 9L8 9L8 11L9 11L9 10L11 10L11 11L10 11L10 13L9 13L9 14L10 14L10 15L9 15L9 16L8 16L8 15L7 15L7 14L6 14L6 15L5 15L5 12L4 12L4 13L3 13L3 14L2 14L2 13L1 13L1 14L0 14L0 16L1 16L1 17L0 17L0 18L1 18L1 17L2 17L2 20L0 20L0 21L5 21L5 20L4 20L4 19L3 19L3 18L6 18L6 19L7 19L7 20L6 20L6 21L7 21L7 20L10 20L10 19L7 19L7 18L10 18L10 17L12 17L12 18L11 18L11 20L12 20L12 21L13 21L13 22L15 22L15 23L14 23L14 24L13 24L13 23L12 23L12 24L11 24L11 25L12 25L12 26L11 26L11 27L10 27L10 26L9 26L9 27L8 27L8 29L9 29L9 28L10 28L10 29L11 29L11 28L12 28L12 29L14 29L14 27L16 27L16 29L17 29L17 28L18 28L18 27L20 27L20 25L21 25L21 28L19 28L19 29L21 29L21 28L22 28L22 29L25 29L25 27L24 27L24 26L23 26L23 25L25 25L25 24L26 24L26 29L28 29L28 28L27 28L27 27L29 27L29 26L28 26L28 25L29 25L29 24L28 24L28 23L29 23L29 22L28 22L28 23L27 23L27 20L28 20L28 19L29 19L29 18L27 18L27 17L28 17L28 14L27 14L27 13L28 13L28 11L27 11L27 10L29 10L29 8L25 8L25 9L24 9L24 8L23 8L23 9L24 9L24 10L20 10L20 9L21 9L21 6L20 6L20 5L21 5L21 4L20 4L20 5L19 5L19 3L21 3L21 0ZM9 2L9 3L10 3L10 2ZM15 4L15 5L16 5L16 6L15 6L15 8L16 8L16 9L13 9L13 8L14 8L14 6L13 6L13 8L12 8L12 9L11 9L11 10L12 10L12 9L13 9L13 10L17 10L17 11L18 11L18 12L15 12L15 11L14 11L14 13L15 13L15 14L13 14L13 13L12 13L12 12L13 12L13 11L12 11L12 12L11 12L11 13L10 13L10 14L11 14L11 15L10 15L10 16L12 16L12 17L13 17L13 18L15 18L15 17L16 17L16 20L15 20L15 19L14 19L14 21L15 21L15 22L16 22L16 24L15 24L15 25L13 25L13 24L12 24L12 25L13 25L13 26L17 26L17 27L18 27L18 25L19 25L19 24L20 24L20 23L19 23L19 24L17 24L17 23L18 23L18 22L20 22L20 21L16 21L16 20L17 20L17 19L18 19L18 18L20 18L20 19L21 19L21 18L22 18L22 17L21 17L21 16L20 16L20 17L19 17L19 15L18 15L18 12L19 12L19 11L20 11L20 10L19 10L19 9L18 9L18 8L19 8L19 7L20 7L20 6L19 6L19 5L18 5L18 4L17 4L17 5L16 5L16 4ZM17 5L17 6L16 6L16 7L17 7L17 8L18 8L18 7L19 7L19 6L18 6L18 5ZM17 6L17 7L18 7L18 6ZM0 8L0 10L1 10L1 11L0 11L0 12L3 12L3 11L4 11L4 10L6 10L6 11L7 11L7 10L6 10L6 9L7 9L7 8L4 8L4 9L2 9L2 8ZM1 9L1 10L2 10L2 11L3 11L3 10L2 10L2 9ZM25 9L25 11L24 11L24 13L23 13L23 11L22 11L22 12L21 12L21 13L19 13L19 14L20 14L20 15L21 15L21 14L23 14L23 15L22 15L22 16L24 16L24 18L25 18L25 19L22 19L22 20L27 20L27 19L26 19L26 18L25 18L25 17L26 17L26 16L27 16L27 15L26 15L26 13L25 13L25 11L26 11L26 9ZM6 12L6 13L7 13L7 12ZM24 13L24 15L25 15L25 13ZM3 14L3 15L1 15L1 16L2 16L2 17L3 17L3 16L4 16L4 17L5 17L5 16L4 16L4 14ZM15 14L15 15L14 15L14 16L13 16L13 15L12 15L12 16L13 16L13 17L15 17L15 15L16 15L16 16L18 16L18 15L17 15L17 14ZM6 15L6 16L7 16L7 17L6 17L6 18L7 18L7 17L8 17L8 16L7 16L7 15ZM12 19L12 20L13 20L13 19ZM8 21L8 22L9 22L9 23L8 23L8 25L9 25L9 24L10 24L10 23L11 23L11 22L9 22L9 21ZM21 21L21 24L24 24L24 21ZM25 21L25 23L26 23L26 21ZM22 22L22 23L23 23L23 22ZM27 24L27 25L28 25L28 24ZM22 26L22 27L23 27L23 28L24 28L24 27L23 27L23 26ZM12 27L12 28L13 28L13 27Z" fill="#000000"/></g></g></svg>
