<?xml version="1.0" encoding="UTF-8"?>
<svg xmlns="http://www.w3.org/2000/svg" version="1.1" width="500" height="500" viewBox="0 0 500 500"><rect x="0" y="0" width="500" height="500" fill="#ffffff"/><g transform="scale(17.241)"><g transform="translate(0,0)"><g><g transform="translate(3.5,3.5)"><path fill-rule="evenodd" d="M-3.5 -3.5L-3.5 3.5L3.5 3.5L3.5 -3.5ZM-2.5 -2.5L-2.5 2.5L2.5 2.5L2.5 -2.5Z" fill="#000000"/><path fill-rule="evenodd" d="M-1.5 -1.5L-1.5 1.5L1.5 1.5L1.5 -1.5Z" fill="#000000"/></g></g><g><g transform="translate(25.5,3.5)"><g transform="rotate(90)"><path fill-rule="evenodd" d="M-3.5 -3.5L-3.5 3.5L3.5 3.5L3.5 -3.5ZM-2.5 -2.5L-2.5 2.5L2.5 2.5L2.5 -2.5Z" fill="#000000"/><path fill-rule="evenodd" d="M-1.5 -1.5L-1.5 1.5L1.5 1.5L1.5 -1.5Z" fill="#000000"/></g></g></g><g><g transform="translate(3.5,25.5)"><g transform="rotate(-90)"><path fill-rule="evenodd" d="M-3.5 -3.5L-3.5 3.5L3.5 3.5L3.5 -3.5ZM-2.5 -2.5L-2.5 2.5L2.5 2.5L2.5 -2.5Z" fill="#000000"/><path fill-rule="evenodd" d="M-1.5 -1.5L-1.5 1.5L1.5 1.5L1.5 -1.5Z" fill="#000000"/></g></g></g><path fill-rule="evenodd" d="M10 0L10 2L11 2L11 0ZM12 0L12 1L13 1L13 2L12 2L12 4L14 4L14 5L11 5L11 6L10 6L10 4L11 4L11 3L8 3L8 4L9 4L9 5L8 5L8 7L9 7L9 8L6 8L6 9L8 9L8 10L9 10L9 9L10 9L10 11L11 11L11 9L12 9L12 13L11 13L11 12L9 12L9 13L8 13L8 12L6 12L6 11L7 11L7 10L5 10L5 13L3 13L3 15L2 15L2 13L1 13L1 15L0 15L0 21L1 21L1 17L2 17L2 16L5 16L5 15L4 15L4 14L6 14L6 15L7 15L7 16L6 16L6 17L3 17L3 19L2 19L2 20L4 20L4 21L8 21L8 23L10 23L10 22L9 22L9 20L10 20L10 19L11 19L11 20L12 20L12 22L13 22L13 20L15 20L15 21L14 21L14 24L15 24L15 26L14 26L14 27L13 27L13 26L12 26L12 25L13 25L13 24L12 24L12 23L11 23L11 24L8 24L8 29L9 29L9 28L10 28L10 29L11 29L11 28L12 28L12 29L13 29L13 28L14 28L14 29L17 29L17 28L18 28L18 29L23 29L23 28L22 28L22 27L24 27L24 25L25 25L25 23L26 23L26 25L29 25L29 23L27 23L27 22L28 22L28 20L29 20L29 17L27 17L27 18L26 18L26 17L25 17L25 15L27 15L27 16L29 16L29 14L28 14L28 13L27 13L27 14L26 14L26 13L25 13L25 12L26 12L26 11L27 11L27 10L28 10L28 8L27 8L27 10L26 10L26 8L25 8L25 9L24 9L24 8L23 8L23 9L24 9L24 10L23 10L23 11L22 11L22 10L21 10L21 9L22 9L22 8L21 8L21 6L20 6L20 7L19 7L19 6L18 6L18 5L19 5L19 4L18 4L18 3L20 3L20 4L21 4L21 0L20 0L20 2L19 2L19 0L18 0L18 1L17 1L17 0L16 0L16 1L15 1L15 0L14 0L14 1L13 1L13 0ZM8 1L8 2L9 2L9 1ZM14 1L14 2L13 2L13 3L14 3L14 4L15 4L15 3L17 3L17 2L15 2L15 1ZM14 2L14 3L15 3L15 2ZM16 4L16 5L18 5L18 4ZM14 5L14 6L13 6L13 7L12 7L12 6L11 6L11 7L12 7L12 8L13 8L13 11L14 11L14 9L15 9L15 10L18 10L18 11L17 11L17 12L19 12L19 13L20 13L20 14L18 14L18 13L17 13L17 14L16 14L16 13L15 13L15 14L14 14L14 13L12 13L12 14L11 14L11 13L9 13L9 14L7 14L7 13L6 13L6 14L7 14L7 15L8 15L8 16L7 16L7 17L6 17L6 18L7 18L7 17L8 17L8 19L6 19L6 20L8 20L8 19L10 19L10 17L11 17L11 19L12 19L12 20L13 20L13 19L12 19L12 18L14 18L14 19L15 19L15 20L16 20L16 19L15 19L15 18L19 18L19 19L20 19L20 16L18 16L18 17L15 17L15 16L17 16L17 14L18 14L18 15L21 15L21 16L22 16L22 17L21 17L21 20L22 20L22 19L25 19L25 20L27 20L27 19L28 19L28 18L27 18L27 19L25 19L25 17L24 17L24 15L25 15L25 14L24 14L24 11L25 11L25 10L24 10L24 11L23 11L23 13L22 13L22 12L19 12L19 11L21 11L21 10L20 10L20 8L19 8L19 7L18 7L18 6L17 6L17 7L16 7L16 6L15 6L15 5ZM9 6L9 7L10 7L10 6ZM14 6L14 8L15 8L15 9L17 9L17 8L15 8L15 6ZM0 8L0 9L1 9L1 11L0 11L0 12L3 12L3 11L4 11L4 10L2 10L2 9L5 9L5 8ZM10 8L10 9L11 9L11 8ZM18 8L18 10L19 10L19 8ZM28 11L28 12L29 12L29 11ZM9 14L9 16L8 16L8 17L9 17L9 16L10 16L10 15L11 15L11 16L12 16L12 17L13 17L13 16L12 16L12 15L14 15L14 16L15 16L15 15L14 15L14 14L12 14L12 15L11 15L11 14ZM23 14L23 15L22 15L22 16L23 16L23 15L24 15L24 14ZM14 17L14 18L15 18L15 17ZM4 18L4 19L5 19L5 18ZM18 20L18 21L17 21L17 22L16 22L16 23L15 23L15 24L16 24L16 25L17 25L17 26L15 26L15 27L14 27L14 28L16 28L16 27L17 27L17 26L18 26L18 27L19 27L19 28L20 28L20 27L21 27L21 26L20 26L20 27L19 27L19 26L18 26L18 25L20 25L20 24L18 24L18 23L20 23L20 20ZM21 21L21 24L24 24L24 21ZM25 21L25 22L27 22L27 21ZM17 22L17 23L16 23L16 24L17 24L17 25L18 25L18 24L17 24L17 23L18 23L18 22ZM22 22L22 23L23 23L23 22ZM11 24L11 25L9 25L9 27L10 27L10 28L11 28L11 27L10 27L10 26L11 26L11 25L12 25L12 24ZM22 25L22 26L23 26L23 25ZM26 26L26 27L25 27L25 28L24 28L24 29L27 29L27 27L28 27L28 28L29 28L29 27L28 27L28 26Z" fill="#000000"/></g></g></svg>
