<?xml version="1.0" encoding="UTF-8"?>
<svg xmlns="http://www.w3.org/2000/svg" version="1.1" width="500" height="500" viewBox="0 0 500 500"><rect x="0" y="0" width="500" height="500" fill="#ffffff"/><g transform="scale(4.95)"><g transform="translate(10,10)"><g><g transform="translate(3.5,3.5)"><path fill-rule="evenodd" d="M-3.5 -3.5L-3.5 3.5L3.5 3.5L3.5 -3.5ZM-2.5 -2.5L-2.5 2.5L2.5 2.5L2.5 -2.5Z" fill="#000000"/><path fill-rule="evenodd" d="M-1.5 -1.5L-1.5 1.5L1.5 1.5L1.5 -1.5Z" fill="#000000"/></g></g><g><g transform="translate(77.5,3.5)"><g transform="rotate(90)"><path fill-rule="evenodd" d="M-3.5 -3.5L-3.5 3.5L3.5 3.5L3.5 -3.5ZM-2.5 -2.5L-2.5 2.5L2.5 2.5L2.5 -2.5Z" fill="#000000"/><path fill-rule="evenodd" d="M-1.5 -1.5L-1.5 1.5L1.5 1.5L1.5 -1.5Z" fill="#000000"/></g></g></g><g><g transform="translate(3.5,77.5)"><g transform="rotate(-90)"><path fill-rule="evenodd" d="M-3.5 -3.5L-3.5 3.5L3.5 3.5L3.5 -3.5ZM-2.5 -2.5L-2.5 2.5L2.5 2.5L2.5 -2.5Z" fill="#000000"/><path fill-rule="evenodd" d="M-1.5 -1.5L-1.5 1.5L1.5 1.5L1.5 -1.5Z" fill="#000000"/></g></g></g><path fill-rule="evenodd" d="M9 0L9 1L8 1L8 2L9 2L9 1L10 1L10 0ZM13 0L13 1L11 1L11 2L13 2L13 1L14 1L14 3L13 3L13 4L12 4L12 5L15 5L15 6L14 6L14 7L15 7L15 6L16 6L16 7L17 7L17 10L16 10L16 11L17 11L17 12L18 12L18 11L19 11L19 10L18 10L18 9L19 9L19 5L18 5L18 7L17 7L17 4L14 4L14 3L15 3L15 2L16 2L16 3L18 3L18 4L19 4L19 3L18 3L18 2L20 2L20 3L21 3L21 4L20 4L20 5L21 5L21 6L20 6L20 12L19 12L19 13L16 13L16 15L14 15L14 9L13 9L13 11L12 11L12 10L11 10L11 3L10 3L10 4L9 4L9 3L8 3L8 4L9 4L9 5L8 5L8 7L9 7L9 8L6 8L6 9L7 9L7 10L5 10L5 8L0 8L0 10L1 10L1 11L2 11L2 10L3 10L3 12L5 12L5 11L9 11L9 13L8 13L8 12L6 12L6 13L7 13L7 14L6 14L6 15L7 15L7 16L3 16L3 17L2 17L2 15L4 15L4 14L2 14L2 12L1 12L1 17L0 17L0 19L1 19L1 20L0 20L0 22L1 22L1 23L0 23L0 28L2 28L2 27L1 27L1 25L2 25L2 26L4 26L4 28L3 28L3 29L1 29L1 30L0 30L0 31L2 31L2 32L3 32L3 31L4 31L4 33L5 33L5 34L3 34L3 33L2 33L2 34L1 34L1 36L0 36L0 38L1 38L1 40L0 40L0 43L1 43L1 44L2 44L2 43L4 43L4 42L5 42L5 41L7 41L7 42L6 42L6 43L5 43L5 44L3 44L3 45L7 45L7 46L5 46L5 47L4 47L4 46L2 46L2 45L0 45L0 46L2 46L2 47L4 47L4 48L0 48L0 49L4 49L4 55L3 55L3 56L5 56L5 57L7 57L7 58L5 58L5 59L7 59L7 58L8 58L8 59L9 59L9 57L7 57L7 56L9 56L9 55L11 55L11 56L12 56L12 58L11 58L11 59L12 59L12 58L13 58L13 59L14 59L14 60L13 60L13 61L12 61L12 62L14 62L14 64L13 64L13 65L11 65L11 62L10 62L10 61L8 61L8 62L5 62L5 60L4 60L4 61L3 61L3 60L2 60L2 61L3 61L3 62L2 62L2 64L1 64L1 65L0 65L0 66L2 66L2 67L0 67L0 70L1 70L1 73L4 73L4 72L2 72L2 71L4 71L4 70L6 70L6 71L5 71L5 72L6 72L6 73L7 73L7 72L8 72L8 75L10 75L10 74L11 74L11 75L12 75L12 76L8 76L8 81L10 81L10 80L9 80L9 77L11 77L11 80L13 80L13 81L15 81L15 80L14 80L14 79L15 79L15 78L16 78L16 77L17 77L17 78L18 78L18 79L19 79L19 81L21 81L21 79L22 79L22 80L23 80L23 81L28 81L28 80L23 80L23 79L24 79L24 78L23 78L23 77L22 77L22 76L24 76L24 77L25 77L25 79L27 79L27 78L29 78L29 76L30 76L30 78L31 78L31 79L29 79L29 80L31 80L31 81L36 81L36 80L31 80L31 79L33 79L33 77L34 77L34 78L35 78L35 79L37 79L37 80L38 80L38 81L40 81L40 79L39 79L39 80L38 80L38 78L35 78L35 77L34 77L34 73L35 73L35 72L36 72L36 73L37 73L37 72L38 72L38 73L39 73L39 74L41 74L41 72L38 72L38 71L40 71L40 70L39 70L39 69L40 69L40 68L38 68L38 66L34 66L34 65L36 65L36 64L38 64L38 65L39 65L39 66L43 66L43 68L44 68L44 66L45 66L45 67L46 67L46 65L47 65L47 66L48 66L48 67L47 67L47 68L46 68L46 69L44 69L44 70L42 70L42 69L41 69L41 70L42 70L42 72L43 72L43 73L42 73L42 75L41 75L41 76L43 76L43 77L40 77L40 76L39 76L39 78L42 78L42 80L43 80L43 81L44 81L44 80L43 80L43 79L45 79L45 77L46 77L46 79L47 79L47 80L45 80L45 81L47 81L47 80L49 80L49 79L50 79L50 81L54 81L54 80L51 80L51 79L52 79L52 78L51 78L51 77L53 77L53 79L54 79L54 78L55 78L55 77L54 77L54 76L55 76L55 75L54 75L54 76L53 76L53 74L56 74L56 75L57 75L57 76L58 76L58 77L59 77L59 78L60 78L60 77L62 77L62 73L59 73L59 75L60 75L60 77L59 77L59 76L58 76L58 73L54 73L54 72L55 72L55 71L54 71L54 72L52 72L52 69L53 69L53 70L56 70L56 71L57 71L57 72L61 72L61 71L57 71L57 70L60 70L60 69L61 69L61 70L62 70L62 69L64 69L64 70L63 70L63 71L62 71L62 72L65 72L65 73L63 73L63 77L64 77L64 78L63 78L63 79L62 79L62 80L61 80L61 79L60 79L60 81L63 81L63 80L65 80L65 81L66 81L66 80L68 80L68 79L69 79L69 80L70 80L70 81L71 81L71 80L70 80L70 77L69 77L69 78L68 78L68 77L66 77L66 76L65 76L65 74L66 74L66 75L67 75L67 74L69 74L69 76L71 76L71 75L70 75L70 74L69 74L69 73L68 73L68 72L70 72L70 73L71 73L71 72L72 72L72 77L77 77L77 78L80 78L80 76L81 76L81 72L79 72L79 75L78 75L78 74L77 74L77 72L75 72L75 71L74 71L74 69L73 69L73 68L71 68L71 66L72 66L72 67L74 67L74 68L75 68L75 67L77 67L77 69L78 69L78 71L79 71L79 70L81 70L81 69L79 69L79 67L78 67L78 66L79 66L79 65L80 65L80 67L81 67L81 65L80 65L80 64L81 64L81 63L78 63L78 62L79 62L79 61L80 61L80 62L81 62L81 61L80 61L80 60L81 60L81 58L80 58L80 57L81 57L81 55L80 55L80 54L79 54L79 53L80 53L80 52L81 52L81 47L80 47L80 50L78 50L78 49L79 49L79 48L78 48L78 47L79 47L79 46L80 46L80 45L78 45L78 44L79 44L79 43L81 43L81 42L80 42L80 40L81 40L81 39L80 39L80 40L79 40L79 39L78 39L78 40L77 40L77 41L76 41L76 42L77 42L77 43L78 43L78 44L77 44L77 45L76 45L76 43L75 43L75 42L74 42L74 41L73 41L73 42L71 42L71 41L72 41L72 40L73 40L73 39L72 39L72 38L73 38L73 37L75 37L75 38L74 38L74 39L75 39L75 38L80 38L80 36L81 36L81 35L80 35L80 36L79 36L79 35L78 35L78 34L80 34L80 33L78 33L78 34L77 34L77 35L78 35L78 36L79 36L79 37L77 37L77 36L75 36L75 35L76 35L76 33L77 33L77 31L76 31L76 30L77 30L77 29L78 29L78 31L79 31L79 29L80 29L80 30L81 30L81 29L80 29L80 28L81 28L81 27L80 27L80 28L77 28L77 26L80 26L80 24L81 24L81 23L78 23L78 25L77 25L77 24L76 24L76 22L75 22L75 21L77 21L77 19L76 19L76 20L75 20L75 21L74 21L74 20L72 20L72 21L71 21L71 19L72 19L72 18L71 18L71 19L69 19L69 18L70 18L70 17L74 17L74 18L73 18L73 19L74 19L74 18L75 18L75 17L77 17L77 16L75 16L75 17L74 17L74 16L70 16L70 15L69 15L69 16L70 16L70 17L69 17L69 18L68 18L68 17L66 17L66 16L65 16L65 15L64 15L64 14L65 14L65 13L66 13L66 14L68 14L68 13L66 13L66 12L67 12L67 11L66 11L66 12L65 12L65 11L64 11L64 10L65 10L65 9L66 9L66 10L69 10L69 12L70 12L70 13L69 13L69 14L70 14L70 13L72 13L72 14L71 14L71 15L72 15L72 14L73 14L73 15L74 15L74 14L73 14L73 13L74 13L74 12L75 12L75 13L78 13L78 14L81 14L81 13L78 13L78 12L79 12L79 11L81 11L81 10L80 10L80 8L79 8L79 9L78 9L78 8L77 8L77 9L78 9L78 10L77 10L77 11L78 11L78 12L75 12L75 11L74 11L74 12L73 12L73 13L72 13L72 12L71 12L71 11L72 11L72 10L75 10L75 9L76 9L76 8L75 8L75 9L74 9L74 8L72 8L72 10L71 10L71 11L70 11L70 9L71 9L71 8L70 8L70 7L71 7L71 6L72 6L72 7L73 7L73 6L72 6L72 5L71 5L71 6L70 6L70 7L69 7L69 6L68 6L68 7L67 7L67 6L66 6L66 5L68 5L68 4L66 4L66 3L65 3L65 1L67 1L67 0L64 0L64 1L63 1L63 2L62 2L62 3L61 3L61 2L59 2L59 1L60 1L60 0L59 0L59 1L57 1L57 0L55 0L55 1L56 1L56 2L57 2L57 4L56 4L56 5L57 5L57 6L56 6L56 7L55 7L55 4L54 4L54 3L53 3L53 4L52 4L52 0L51 0L51 2L49 2L49 1L47 1L47 0L46 0L46 1L45 1L45 0L44 0L44 1L45 1L45 2L47 2L47 3L46 3L46 4L45 4L45 5L46 5L46 4L47 4L47 6L46 6L46 7L47 7L47 8L44 8L44 7L45 7L45 6L44 6L44 7L43 7L43 5L44 5L44 4L39 4L39 2L35 2L35 1L36 1L36 0L35 0L35 1L34 1L34 0L32 0L32 1L31 1L31 0L29 0L29 3L30 3L30 4L28 4L28 2L27 2L27 3L26 3L26 4L24 4L24 3L23 3L23 2L24 2L24 1L23 1L23 0L22 0L22 1L21 1L21 2L20 2L20 1L19 1L19 0L18 0L18 2L16 2L16 0L15 0L15 1L14 1L14 0ZM25 0L25 1L26 1L26 0ZM27 0L27 1L28 1L28 0ZM37 0L37 1L38 1L38 0ZM40 0L40 1L41 1L41 0ZM42 0L42 2L41 2L41 3L44 3L44 2L43 2L43 0ZM22 1L22 2L21 2L21 3L22 3L22 4L23 4L23 3L22 3L22 2L23 2L23 1ZM32 1L32 3L31 3L31 4L32 4L32 5L31 5L31 8L30 8L30 9L31 9L31 10L32 10L32 12L29 12L29 11L30 11L30 10L29 10L29 9L27 9L27 10L26 10L26 9L23 9L23 8L22 8L22 6L21 6L21 9L22 9L22 10L26 10L26 11L22 11L22 12L24 12L24 13L22 13L22 14L23 14L23 15L25 15L25 16L24 16L24 18L23 18L23 16L22 16L22 15L21 15L21 16L20 16L20 15L19 15L19 14L17 14L17 15L16 15L16 16L17 16L17 17L16 17L16 18L18 18L18 20L20 20L20 19L19 19L19 18L21 18L21 17L22 17L22 18L23 18L23 19L25 19L25 20L24 20L24 21L23 21L23 20L22 20L22 19L21 19L21 21L20 21L20 22L22 22L22 23L21 23L21 24L20 24L20 23L18 23L18 22L19 22L19 21L17 21L17 20L15 20L15 21L14 21L14 20L13 20L13 19L14 19L14 17L15 17L15 16L13 16L13 17L12 17L12 16L11 16L11 17L10 17L10 13L13 13L13 12L10 12L10 13L9 13L9 14L7 14L7 15L9 15L9 18L8 18L8 19L5 19L5 20L4 20L4 21L3 21L3 23L2 23L2 24L3 24L3 23L6 23L6 24L8 24L8 23L6 23L6 22L9 22L9 23L10 23L10 25L9 25L9 27L10 27L10 28L12 28L12 30L13 30L13 31L12 31L12 36L11 36L11 35L10 35L10 36L11 36L11 37L10 37L10 38L9 38L9 37L2 37L2 38L7 38L7 39L5 39L5 40L4 40L4 41L3 41L3 39L2 39L2 40L1 40L1 41L3 41L3 42L4 42L4 41L5 41L5 40L7 40L7 41L8 41L8 40L7 40L7 39L9 39L9 40L10 40L10 42L7 42L7 43L6 43L6 44L8 44L8 45L9 45L9 46L7 46L7 47L5 47L5 48L8 48L8 47L9 47L9 49L11 49L11 47L12 47L12 45L13 45L13 47L14 47L14 50L13 50L13 48L12 48L12 51L11 51L11 50L10 50L10 51L9 51L9 53L10 53L10 54L11 54L11 53L12 53L12 54L13 54L13 56L14 56L14 59L15 59L15 58L16 58L16 61L17 61L17 58L18 58L18 62L17 62L17 64L18 64L18 65L19 65L19 66L18 66L18 67L19 67L19 68L18 68L18 69L19 69L19 70L18 70L18 73L17 73L17 74L16 74L16 75L15 75L15 74L13 74L13 75L14 75L14 77L15 77L15 76L16 76L16 75L17 75L17 77L18 77L18 78L19 78L19 77L20 77L20 78L21 78L21 77L20 77L20 76L21 76L21 73L23 73L23 75L24 75L24 72L29 72L29 75L31 75L31 76L33 76L33 74L32 74L32 72L33 72L33 71L34 71L34 72L35 72L35 71L36 71L36 72L37 72L37 71L36 71L36 70L38 70L38 68L37 68L37 69L36 69L36 67L34 67L34 66L32 66L32 68L31 68L31 66L30 66L30 65L29 65L29 63L30 63L30 61L31 61L31 64L32 64L32 65L33 65L33 64L36 64L36 63L37 63L37 61L38 61L38 60L39 60L39 61L41 61L41 62L39 62L39 63L38 63L38 64L39 64L39 65L40 65L40 64L41 64L41 62L42 62L42 63L43 63L43 62L44 62L44 64L43 64L43 66L44 66L44 65L45 65L45 63L46 63L46 64L47 64L47 65L50 65L50 64L54 64L54 65L53 65L53 67L52 67L52 68L51 68L51 66L49 66L49 67L48 67L48 68L47 68L47 69L46 69L46 70L47 70L47 71L45 71L45 70L44 70L44 73L45 73L45 74L44 74L44 75L43 75L43 76L47 76L47 79L48 79L48 75L47 75L47 73L48 73L48 72L50 72L50 71L51 71L51 70L50 70L50 71L49 71L49 69L50 69L50 68L51 68L51 69L52 69L52 68L53 68L53 69L56 69L56 67L57 67L57 66L55 66L55 64L57 64L57 65L58 65L58 68L57 68L57 69L58 69L58 68L59 68L59 69L60 69L60 67L61 67L61 68L62 68L62 67L63 67L63 68L64 68L64 69L65 69L65 72L66 72L66 73L67 73L67 71L69 71L69 69L70 69L70 71L72 71L72 72L73 72L73 71L72 71L72 70L73 70L73 69L70 69L70 68L69 68L69 66L67 66L67 68L66 68L66 65L65 65L65 66L64 66L64 65L62 65L62 64L66 64L66 62L67 62L67 64L68 64L68 65L70 65L70 66L71 66L71 65L73 65L73 66L74 66L74 67L75 67L75 65L73 65L73 64L74 64L74 63L75 63L75 62L76 62L76 64L77 64L77 65L76 65L76 66L77 66L77 65L79 65L79 64L78 64L78 63L77 63L77 62L76 62L76 61L78 61L78 59L79 59L79 60L80 60L80 59L79 59L79 58L78 58L78 56L77 56L77 55L75 55L75 54L77 54L77 53L74 53L74 55L73 55L73 53L72 53L72 51L71 51L71 49L72 49L72 48L73 48L73 47L74 47L74 48L77 48L77 47L78 47L78 45L77 45L77 46L76 46L76 47L74 47L74 46L75 46L75 43L74 43L74 42L73 42L73 43L74 43L74 46L73 46L73 47L72 47L72 46L71 46L71 45L73 45L73 44L71 44L71 45L70 45L70 44L69 44L69 43L68 43L68 42L67 42L67 41L70 41L70 40L72 40L72 39L71 39L71 38L69 38L69 39L68 39L68 38L67 38L67 37L70 37L70 36L71 36L71 37L73 37L73 35L74 35L74 34L75 34L75 31L74 31L74 30L75 30L75 29L74 29L74 30L73 30L73 31L74 31L74 34L73 34L73 35L72 35L72 34L71 34L71 33L70 33L70 32L71 32L71 30L69 30L69 31L70 31L70 32L68 32L68 33L70 33L70 34L71 34L71 35L70 35L70 36L69 36L69 35L68 35L68 34L66 34L66 33L67 33L67 32L66 32L66 29L65 29L65 28L66 28L66 27L64 27L64 28L63 28L63 29L62 29L62 27L63 27L63 26L64 26L64 24L65 24L65 25L66 25L66 22L67 22L67 23L68 23L68 22L67 22L67 19L68 19L68 18L66 18L66 17L65 17L65 20L64 20L64 19L63 19L63 18L64 18L64 17L60 17L60 18L59 18L59 17L58 17L58 16L57 16L57 15L58 15L58 14L59 14L59 16L62 16L62 14L64 14L64 13L65 13L65 12L64 12L64 13L60 13L60 12L59 12L59 13L58 13L58 12L57 12L57 15L56 15L56 14L55 14L55 15L54 15L54 13L56 13L56 11L57 11L57 10L58 10L58 11L61 11L61 12L62 12L62 11L63 11L63 10L64 10L64 9L65 9L65 8L66 8L66 9L67 9L67 8L66 8L66 6L65 6L65 7L64 7L64 6L63 6L63 5L64 5L64 4L65 4L65 3L64 3L64 4L63 4L63 3L62 3L62 4L60 4L60 3L59 3L59 2L58 2L58 4L57 4L57 5L59 5L59 7L60 7L60 8L63 8L63 7L64 7L64 9L60 9L60 10L59 10L59 9L58 9L58 8L55 8L55 7L54 7L54 6L53 6L53 8L54 8L54 9L51 9L51 11L53 11L53 12L54 12L54 13L52 13L52 12L51 12L51 13L50 13L50 12L49 12L49 11L50 11L50 10L49 10L49 9L48 9L48 8L47 8L47 9L45 9L45 10L44 10L44 8L40 8L40 6L41 6L41 7L42 7L42 6L41 6L41 5L37 5L37 4L38 4L38 3L35 3L35 2L34 2L34 1ZM70 1L70 2L69 2L69 5L70 5L70 4L71 4L71 2L72 2L72 4L73 4L73 1ZM48 2L48 3L47 3L47 4L48 4L48 3L49 3L49 4L51 4L51 3L49 3L49 2ZM33 3L33 4L34 4L34 5L33 5L33 6L32 6L32 7L33 7L33 6L34 6L34 7L35 7L35 6L34 6L34 5L35 5L35 3ZM53 4L53 5L54 5L54 4ZM59 4L59 5L60 5L60 4ZM23 5L23 7L24 7L24 5ZM25 5L25 8L28 8L28 5ZM49 5L49 8L52 8L52 5ZM9 6L9 7L10 7L10 6ZM12 6L12 8L13 8L13 6ZM26 6L26 7L27 7L27 6ZM29 6L29 7L30 7L30 6ZM36 6L36 7L37 7L37 6ZM38 6L38 7L39 7L39 6ZM47 6L47 7L48 7L48 6ZM50 6L50 7L51 7L51 6ZM57 6L57 7L58 7L58 6ZM60 6L60 7L61 7L61 6ZM62 6L62 7L63 7L63 6ZM9 8L9 9L8 9L8 10L9 10L9 11L10 11L10 8ZM31 8L31 9L32 9L32 10L33 10L33 9L35 9L35 11L36 11L36 12L35 12L35 13L36 13L36 12L38 12L38 13L37 13L37 15L36 15L36 14L35 14L35 15L36 15L36 16L34 16L34 17L35 17L35 20L34 20L34 21L32 21L32 22L33 22L33 23L32 23L32 24L31 24L31 22L30 22L30 21L28 21L28 20L27 20L27 21L24 21L24 22L25 22L25 23L26 23L26 24L23 24L23 23L22 23L22 24L21 24L21 26L19 26L19 25L18 25L18 23L17 23L17 22L16 22L16 21L15 21L15 23L14 23L14 22L12 22L12 21L13 21L13 20L12 20L12 18L11 18L11 19L9 19L9 20L11 20L11 21L9 21L9 22L11 22L11 23L12 23L12 24L11 24L11 26L12 26L12 28L13 28L13 27L14 27L14 29L15 29L15 30L14 30L14 31L13 31L13 34L15 34L15 35L13 35L13 36L12 36L12 37L13 37L13 38L12 38L12 39L11 39L11 38L10 38L10 40L11 40L11 41L12 41L12 44L11 44L11 42L10 42L10 43L8 43L8 44L11 44L11 45L12 45L12 44L13 44L13 45L14 45L14 44L15 44L15 46L14 46L14 47L15 47L15 46L16 46L16 44L17 44L17 42L13 42L13 40L14 40L14 41L18 41L18 42L19 42L19 43L18 43L18 44L19 44L19 43L22 43L22 44L21 44L21 45L20 45L20 46L19 46L19 45L18 45L18 46L17 46L17 49L19 49L19 50L14 50L14 51L13 51L13 52L12 52L12 53L16 53L16 54L17 54L17 55L16 55L16 56L15 56L15 57L16 57L16 56L19 56L19 55L18 55L18 53L16 53L16 52L15 52L15 51L17 51L17 52L18 52L18 51L20 51L20 52L22 52L22 48L20 48L20 49L19 49L19 48L18 48L18 46L19 46L19 47L22 47L22 46L24 46L24 44L25 44L25 43L26 43L26 42L28 42L28 43L27 43L27 44L26 44L26 45L27 45L27 48L26 48L26 47L23 47L23 52L24 52L24 53L23 53L23 54L24 54L24 53L26 53L26 54L25 54L25 56L24 56L24 57L22 57L22 56L23 56L23 55L22 55L22 54L21 54L21 53L20 53L20 54L21 54L21 55L22 55L22 56L20 56L20 57L19 57L19 59L20 59L20 61L21 61L21 62L18 62L18 63L20 63L20 64L21 64L21 66L19 66L19 67L22 67L22 68L21 68L21 71L22 71L22 72L23 72L23 71L27 71L27 69L29 69L29 70L30 70L30 73L31 73L31 72L32 72L32 70L34 70L34 71L35 71L35 70L34 70L34 69L35 69L35 68L33 68L33 69L32 69L32 70L30 70L30 69L29 69L29 68L30 68L30 66L29 66L29 68L28 68L28 67L27 67L27 66L28 66L28 65L27 65L27 66L26 66L26 68L27 68L27 69L26 69L26 70L24 70L24 69L25 69L25 68L23 68L23 66L22 66L22 64L24 64L24 63L25 63L25 64L26 64L26 63L25 63L25 62L26 62L26 61L25 61L25 58L24 58L24 57L25 57L25 56L26 56L26 54L28 54L28 53L29 53L29 51L30 51L30 52L32 52L32 50L35 50L35 52L33 52L33 53L34 53L34 54L35 54L35 56L34 56L34 57L33 57L33 55L31 55L31 54L32 54L32 53L30 53L30 56L31 56L31 57L30 57L30 60L31 60L31 59L32 59L32 61L33 61L33 62L34 62L34 61L33 61L33 60L34 60L34 57L35 57L35 59L36 59L36 60L35 60L35 61L36 61L36 60L38 60L38 59L39 59L39 58L41 58L41 60L43 60L43 61L42 61L42 62L43 62L43 61L44 61L44 62L46 62L46 61L45 61L45 60L46 60L46 59L45 59L45 60L43 60L43 59L44 59L44 58L47 58L47 59L48 59L48 61L47 61L47 63L48 63L48 64L49 64L49 62L48 62L48 61L49 61L49 59L50 59L50 58L54 58L54 59L55 59L55 60L56 60L56 61L54 61L54 60L52 60L52 59L51 59L51 60L50 60L50 61L52 61L52 62L50 62L50 63L52 63L52 62L53 62L53 61L54 61L54 63L55 63L55 62L56 62L56 63L57 63L57 64L58 64L58 63L59 63L59 64L60 64L60 65L61 65L61 64L62 64L62 63L65 63L65 61L66 61L66 60L67 60L67 62L68 62L68 64L70 64L70 65L71 65L71 64L73 64L73 63L74 63L74 62L73 62L73 60L72 60L72 59L73 59L73 58L75 58L75 59L74 59L74 60L75 60L75 59L78 59L78 58L77 58L77 56L75 56L75 55L74 55L74 56L73 56L73 57L71 57L71 54L70 54L70 53L71 53L71 51L69 51L69 50L70 50L70 49L71 49L71 48L72 48L72 47L68 47L68 49L67 49L67 50L68 50L68 52L70 52L70 53L67 53L67 54L68 54L68 55L69 55L69 56L70 56L70 57L71 57L71 58L72 58L72 59L70 59L70 58L69 58L69 57L68 57L68 56L65 56L65 57L64 57L64 55L65 55L65 53L66 53L66 52L67 52L67 51L66 51L66 50L65 50L65 49L64 49L64 47L65 47L65 45L66 45L66 44L65 44L65 43L67 43L67 44L68 44L68 43L67 43L67 42L65 42L65 41L66 41L66 40L67 40L67 38L66 38L66 36L65 36L65 38L63 38L63 40L60 40L60 39L59 39L59 40L58 40L58 37L56 37L56 36L53 36L53 35L52 35L52 34L56 34L56 35L57 35L57 36L58 36L58 35L59 35L59 34L60 34L60 32L61 32L61 33L62 33L62 32L63 32L63 33L64 33L64 30L65 30L65 29L64 29L64 30L62 30L62 29L61 29L61 27L62 27L62 26L63 26L63 24L64 24L64 23L65 23L65 21L64 21L64 22L62 22L62 21L63 21L63 19L62 19L62 18L60 18L60 19L59 19L59 18L58 18L58 19L57 19L57 17L54 17L54 16L53 16L53 17L51 17L51 18L52 18L52 19L49 19L49 18L48 18L48 20L46 20L46 19L47 19L47 17L48 17L48 16L45 16L45 17L44 17L44 18L42 18L42 17L43 17L43 16L44 16L44 15L45 15L45 14L46 14L46 13L41 13L41 12L46 12L46 11L41 11L41 12L40 12L40 13L39 13L39 12L38 12L38 11L37 11L37 10L36 10L36 9L37 9L37 8L36 8L36 9L35 9L35 8L33 8L33 9L32 9L32 8ZM38 8L38 9L39 9L39 10L41 10L41 9L40 9L40 8ZM68 8L68 9L70 9L70 8ZM3 9L3 10L4 10L4 9ZM42 9L42 10L43 10L43 9ZM47 9L47 10L48 10L48 11L49 11L49 10L48 10L48 9ZM54 9L54 10L57 10L57 9ZM17 10L17 11L18 11L18 10ZM28 10L28 11L29 11L29 10ZM26 11L26 12L27 12L27 15L26 15L26 13L24 13L24 14L25 14L25 15L26 15L26 16L27 16L27 17L28 17L28 18L27 18L27 19L29 19L29 20L30 20L30 19L32 19L32 18L33 18L33 17L28 17L28 15L29 15L29 16L33 16L33 15L32 15L32 14L34 14L34 13L32 13L32 14L31 14L31 13L29 13L29 14L28 14L28 12L27 12L27 11ZM33 11L33 12L34 12L34 11ZM54 11L54 12L55 12L55 11ZM47 12L47 13L48 13L48 14L47 14L47 15L48 15L48 14L50 14L50 15L49 15L49 16L50 16L50 15L51 15L51 16L52 16L52 15L53 15L53 14L52 14L52 15L51 15L51 14L50 14L50 13L49 13L49 12ZM20 13L20 14L21 14L21 13ZM38 13L38 16L37 16L37 17L36 17L36 18L37 18L37 17L38 17L38 16L40 16L40 17L39 17L39 19L37 19L37 21L36 21L36 20L35 20L35 21L34 21L34 22L37 22L37 23L36 23L36 24L35 24L35 23L33 23L33 24L35 24L35 26L36 26L36 28L35 28L35 27L33 27L33 26L34 26L34 25L33 25L33 26L32 26L32 25L31 25L31 24L30 24L30 25L29 25L29 26L30 26L30 27L31 27L31 28L29 28L29 29L27 29L27 31L28 31L28 34L22 34L22 33L24 33L24 32L22 32L22 31L20 31L20 32L19 32L19 33L17 33L17 32L18 32L18 30L15 30L15 31L14 31L14 33L15 33L15 34L17 34L17 35L18 35L18 36L17 36L17 37L16 37L16 36L13 36L13 37L14 37L14 38L15 38L15 39L14 39L14 40L15 40L15 39L16 39L16 38L17 38L17 39L18 39L18 41L21 41L21 40L22 40L22 39L25 39L25 37L28 37L28 36L27 36L27 35L28 35L28 34L30 34L30 33L31 33L31 36L29 36L29 37L30 37L30 39L29 39L29 40L27 40L27 39L28 39L28 38L26 38L26 40L25 40L25 41L26 41L26 40L27 40L27 41L29 41L29 44L27 44L27 45L28 45L28 47L29 47L29 49L30 49L30 50L32 50L32 49L30 49L30 47L29 47L29 46L30 46L30 45L29 45L29 44L30 44L30 41L31 41L31 42L32 42L32 43L33 43L33 44L35 44L35 46L31 46L31 47L33 47L33 49L34 49L34 48L35 48L35 50L37 50L37 51L40 51L40 53L41 53L41 54L40 54L40 56L39 56L39 54L37 54L37 53L38 53L38 52L36 52L36 53L35 53L35 54L37 54L37 55L36 55L36 56L35 56L35 57L36 57L36 58L37 58L37 57L38 57L38 56L39 56L39 57L43 57L43 58L44 58L44 57L45 57L45 56L47 56L47 58L48 58L48 59L49 59L49 58L48 58L48 57L50 57L50 56L51 56L51 57L52 57L52 56L54 56L54 57L55 57L55 59L56 59L56 60L57 60L57 59L56 59L56 57L58 57L58 59L60 59L60 60L59 60L59 61L60 61L60 62L59 62L59 63L62 63L62 62L64 62L64 61L65 61L65 60L66 60L66 57L65 57L65 60L64 60L64 59L62 59L62 58L64 58L64 57L62 57L62 58L59 58L59 57L60 57L60 54L62 54L62 55L61 55L61 56L62 56L62 55L63 55L63 54L64 54L64 53L62 53L62 52L59 52L59 53L60 53L60 54L59 54L59 55L58 55L58 54L56 54L56 53L57 53L57 52L56 52L56 51L62 51L62 50L64 50L64 51L63 51L63 52L66 52L66 51L65 51L65 50L64 50L64 49L63 49L63 48L62 48L62 47L63 47L63 46L64 46L64 45L65 45L65 44L63 44L63 42L64 42L64 43L65 43L65 42L64 42L64 41L65 41L65 40L66 40L66 38L65 38L65 39L64 39L64 40L63 40L63 42L62 42L62 41L60 41L60 42L59 42L59 41L58 41L58 40L57 40L57 38L55 38L55 40L54 40L54 37L53 37L53 36L52 36L52 39L51 39L51 37L50 37L50 38L49 38L49 39L47 39L47 38L48 38L48 36L47 36L47 38L46 38L46 37L45 37L45 36L46 36L46 35L45 35L45 34L44 34L44 35L45 35L45 36L41 36L41 35L42 35L42 34L43 34L43 33L45 33L45 32L47 32L47 33L46 33L46 34L48 34L48 32L49 32L49 30L50 30L50 31L51 31L51 33L50 33L50 34L49 34L49 36L51 36L51 35L50 35L50 34L51 34L51 33L53 33L53 32L54 32L54 33L56 33L56 29L57 29L57 31L58 31L58 32L57 32L57 33L58 33L58 34L59 34L59 33L58 33L58 32L59 32L59 31L60 31L60 30L59 30L59 29L60 29L60 26L62 26L62 25L60 25L60 26L59 26L59 25L58 25L58 24L57 24L57 23L58 23L58 22L59 22L59 23L60 23L60 24L63 24L63 23L61 23L61 22L60 22L60 21L58 21L58 20L59 20L59 19L58 19L58 20L57 20L57 23L56 23L56 22L54 22L54 21L56 21L56 18L54 18L54 17L53 17L53 21L52 21L52 22L49 22L49 21L46 21L46 23L45 23L45 22L44 22L44 21L45 21L45 19L46 19L46 17L45 17L45 18L44 18L44 19L42 19L42 20L41 20L41 18L40 18L40 17L42 17L42 15L44 15L44 14L42 14L42 15L41 15L41 13L40 13L40 14L39 14L39 13ZM59 13L59 14L60 14L60 13ZM12 14L12 15L13 15L13 14ZM29 14L29 15L30 15L30 14ZM75 14L75 15L76 15L76 14ZM17 15L17 16L18 16L18 18L19 18L19 16L18 16L18 15ZM40 15L40 16L41 16L41 15ZM78 15L78 18L79 18L79 17L80 17L80 19L81 19L81 17L80 17L80 16L81 16L81 15L80 15L80 16L79 16L79 15ZM3 17L3 18L4 18L4 17ZM6 17L6 18L7 18L7 17ZM25 17L25 19L26 19L26 17ZM1 18L1 19L2 19L2 18ZM61 19L61 20L62 20L62 19ZM78 19L78 22L81 22L81 21L79 21L79 19ZM1 20L1 21L2 21L2 20ZM5 20L5 21L7 21L7 20ZM38 20L38 21L40 21L40 20ZM43 20L43 21L44 21L44 20ZM50 20L50 21L51 21L51 20ZM68 20L68 21L69 21L69 22L70 22L70 23L71 23L71 24L68 24L68 25L70 25L70 28L68 28L68 29L70 29L70 28L71 28L71 27L72 27L72 25L71 25L71 24L72 24L72 23L73 23L73 24L75 24L75 22L72 22L72 23L71 23L71 21L70 21L70 20ZM22 21L22 22L23 22L23 21ZM27 21L27 22L26 22L26 23L27 23L27 24L29 24L29 23L30 23L30 22L29 22L29 23L27 23L27 22L28 22L28 21ZM41 21L41 22L42 22L42 23L41 23L41 24L38 24L38 23L37 23L37 24L36 24L36 26L37 26L37 27L38 27L38 26L37 26L37 24L38 24L38 25L39 25L39 26L42 26L42 27L41 27L41 29L39 29L39 30L41 30L41 32L45 32L45 28L43 28L43 27L44 27L44 26L47 26L47 27L48 27L48 29L47 29L47 28L46 28L46 29L47 29L47 31L48 31L48 30L49 30L49 29L50 29L50 30L51 30L51 31L55 31L55 29L56 29L56 28L57 28L57 29L58 29L58 28L59 28L59 27L58 27L58 26L57 26L57 24L56 24L56 25L54 25L54 24L55 24L55 23L54 23L54 24L53 24L53 22L52 22L52 23L50 23L50 24L48 24L48 23L49 23L49 22L48 22L48 23L47 23L47 24L45 24L45 23L44 23L44 22L42 22L42 21ZM39 22L39 23L40 23L40 22ZM15 23L15 24L12 24L12 26L13 26L13 25L14 25L14 26L15 26L15 29L16 29L16 28L17 28L17 29L20 29L20 30L21 30L21 29L24 29L24 30L23 30L23 31L25 31L25 29L24 29L24 26L23 26L23 24L22 24L22 26L23 26L23 27L22 27L22 28L21 28L21 27L18 27L18 26L17 26L17 25L16 25L16 24L17 24L17 23ZM41 24L41 25L43 25L43 26L44 26L44 25L43 25L43 24ZM5 25L5 28L8 28L8 25ZM15 25L15 26L16 26L16 25ZM25 25L25 28L28 28L28 25ZM30 25L30 26L31 26L31 27L32 27L32 26L31 26L31 25ZM47 25L47 26L48 26L48 25ZM49 25L49 28L52 28L52 25ZM53 25L53 28L54 28L54 29L51 29L51 30L54 30L54 29L55 29L55 28L56 28L56 27L57 27L57 26L54 26L54 25ZM73 25L73 28L76 28L76 25ZM6 26L6 27L7 27L7 26ZM26 26L26 27L27 27L27 26ZM50 26L50 27L51 27L51 26ZM67 26L67 27L69 27L69 26ZM74 26L74 27L75 27L75 26ZM17 27L17 28L18 28L18 27ZM39 27L39 28L40 28L40 27ZM20 28L20 29L21 29L21 28ZM31 28L31 29L32 29L32 30L31 30L31 31L30 31L30 30L28 30L28 31L29 31L29 32L31 32L31 31L33 31L33 30L34 30L34 29L35 29L35 28ZM36 28L36 30L35 30L35 31L36 31L36 32L33 32L33 33L32 33L32 34L33 34L33 33L34 33L34 34L35 34L35 35L34 35L34 36L33 36L33 35L32 35L32 36L31 36L31 37L34 37L34 38L33 38L33 39L34 39L34 38L36 38L36 41L39 41L39 42L38 42L38 43L37 43L37 42L36 42L36 43L37 43L37 44L36 44L36 46L35 46L35 48L37 48L37 47L38 47L38 45L37 45L37 44L38 44L38 43L39 43L39 44L40 44L40 45L39 45L39 46L40 46L40 48L38 48L38 49L40 49L40 50L41 50L41 51L42 51L42 52L44 52L44 50L45 50L45 49L47 49L47 48L45 48L45 47L44 47L44 46L45 46L45 45L47 45L47 44L45 44L45 43L47 43L47 40L43 40L43 39L46 39L46 38L41 38L41 37L40 37L40 35L39 35L39 34L42 34L42 33L39 33L39 32L38 32L38 30L37 30L37 29L38 29L38 28ZM42 28L42 29L41 29L41 30L42 30L42 31L43 31L43 30L44 30L44 29L43 29L43 28ZM4 29L4 31L5 31L5 32L7 32L7 33L6 33L6 34L5 34L5 35L6 35L6 36L8 36L8 35L9 35L9 34L8 34L8 35L6 35L6 34L7 34L7 33L8 33L8 32L9 32L9 33L11 33L11 31L10 31L10 30L9 30L9 29L8 29L8 31L6 31L6 30L7 30L7 29ZM42 29L42 30L43 30L43 29ZM36 30L36 31L37 31L37 30ZM61 30L61 32L62 32L62 30ZM67 30L67 31L68 31L68 30ZM9 31L9 32L10 32L10 31ZM0 32L0 33L1 33L1 32ZM25 32L25 33L26 33L26 32ZM37 32L37 33L36 33L36 34L39 34L39 33L38 33L38 32ZM65 32L65 33L66 33L66 32ZM72 32L72 33L73 33L73 32ZM19 34L19 35L20 35L20 37L19 37L19 38L18 38L18 39L20 39L20 40L21 40L21 39L22 39L22 38L23 38L23 37L25 37L25 35L22 35L22 36L23 36L23 37L21 37L21 35L20 35L20 34ZM63 34L63 37L64 37L64 34ZM38 35L38 36L39 36L39 35ZM60 35L60 36L59 36L59 38L60 38L60 37L62 37L62 36L61 36L61 35ZM71 35L71 36L72 36L72 35ZM35 36L35 37L36 37L36 36ZM20 37L20 38L21 38L21 37ZM37 37L37 38L39 38L39 37ZM31 38L31 39L30 39L30 40L32 40L32 42L34 42L34 43L35 43L35 42L34 42L34 41L35 41L35 40L32 40L32 38ZM40 38L40 39L38 39L38 40L40 40L40 41L41 41L41 42L39 42L39 43L40 43L40 44L42 44L42 43L43 43L43 44L44 44L44 43L45 43L45 42L46 42L46 41L45 41L45 42L44 42L44 41L42 41L42 39L41 39L41 38ZM12 39L12 40L13 40L13 39ZM50 39L50 40L48 40L48 41L50 41L50 40L51 40L51 41L52 41L52 40L51 40L51 39ZM69 39L69 40L70 40L70 39ZM53 40L53 41L54 41L54 40ZM23 41L23 42L22 42L22 43L23 43L23 44L22 44L22 45L23 45L23 44L24 44L24 43L23 43L23 42L24 42L24 41ZM55 41L55 42L56 42L56 41ZM57 41L57 44L56 44L56 43L54 43L54 44L56 44L56 45L53 45L53 42L52 42L52 44L49 44L49 42L48 42L48 46L46 46L46 47L50 47L50 48L48 48L48 52L45 52L45 53L47 53L47 54L48 54L48 56L49 56L49 54L52 54L52 55L53 55L53 54L54 54L54 55L55 55L55 56L56 56L56 55L55 55L55 53L56 53L56 52L55 52L55 53L54 53L54 52L53 52L53 51L54 51L54 50L60 50L60 49L59 49L59 48L58 48L58 47L59 47L59 46L58 46L58 47L57 47L57 48L56 48L56 47L55 47L55 48L56 48L56 49L54 49L54 48L53 48L53 47L54 47L54 46L57 46L57 44L58 44L58 45L60 45L60 48L61 48L61 47L62 47L62 46L61 46L61 45L63 45L63 44L59 44L59 43L58 43L58 41ZM43 42L43 43L44 43L44 42ZM61 42L61 43L62 43L62 42ZM78 42L78 43L79 43L79 42ZM13 43L13 44L14 44L14 43ZM31 44L31 45L32 45L32 44ZM41 45L41 46L42 46L42 45ZM43 45L43 46L44 46L44 45ZM49 45L49 46L50 46L50 47L51 47L51 48L52 48L52 47L53 47L53 45L52 45L52 47L51 47L51 46L50 46L50 45ZM67 45L67 46L70 46L70 45ZM43 47L43 48L40 48L40 49L43 49L43 50L44 50L44 49L43 49L43 48L44 48L44 47ZM15 48L15 49L16 49L16 48ZM57 48L57 49L58 49L58 48ZM69 48L69 49L70 49L70 48ZM5 49L5 52L8 52L8 49ZM20 49L20 50L21 50L21 49ZM25 49L25 52L28 52L28 49ZM49 49L49 52L52 52L52 49ZM61 49L61 50L62 50L62 49ZM73 49L73 52L76 52L76 49ZM0 50L0 53L2 53L2 52L1 52L1 50ZM6 50L6 51L7 51L7 50ZM26 50L26 51L27 51L27 50ZM46 50L46 51L47 51L47 50ZM50 50L50 51L51 51L51 50ZM74 50L74 51L75 51L75 50ZM77 50L77 52L78 52L78 53L79 53L79 52L80 52L80 51L79 51L79 52L78 52L78 50ZM10 52L10 53L11 53L11 52ZM6 53L6 54L5 54L5 56L7 56L7 55L6 55L6 54L7 54L7 53ZM42 53L42 55L41 55L41 56L44 56L44 55L43 55L43 54L44 54L44 53ZM52 53L52 54L53 54L53 53ZM1 54L1 55L0 55L0 56L1 56L1 55L2 55L2 54ZM27 55L27 57L26 57L26 58L27 58L27 62L28 62L28 61L29 61L29 60L28 60L28 58L27 58L27 57L29 57L29 56L28 56L28 55ZM37 55L37 56L36 56L36 57L37 57L37 56L38 56L38 55ZM57 55L57 56L58 56L58 57L59 57L59 56L58 56L58 55ZM79 55L79 57L80 57L80 55ZM0 57L0 58L1 58L1 57ZM2 57L2 58L4 58L4 57ZM20 57L20 59L21 59L21 58L22 58L22 57ZM31 57L31 58L32 58L32 59L33 59L33 58L32 58L32 57ZM75 57L75 58L76 58L76 57ZM23 58L23 59L22 59L22 60L23 60L23 61L22 61L22 62L23 62L23 63L24 63L24 62L23 62L23 61L24 61L24 58ZM67 58L67 60L68 60L68 61L70 61L70 62L71 62L71 63L72 63L72 60L71 60L71 61L70 61L70 60L68 60L68 59L69 59L69 58ZM0 59L0 60L1 60L1 59ZM6 60L6 61L7 61L7 60ZM60 60L60 61L61 61L61 62L62 62L62 61L63 61L63 60ZM3 62L3 63L4 63L4 65L3 65L3 64L2 64L2 66L5 66L5 69L6 69L6 70L7 70L7 71L6 71L6 72L7 72L7 71L8 71L8 72L10 72L10 73L9 73L9 74L10 74L10 73L11 73L11 74L12 74L12 73L11 73L11 71L13 71L13 72L16 72L16 71L14 71L14 70L12 70L12 69L11 69L11 70L10 70L10 71L8 71L8 70L7 70L7 69L8 69L8 67L10 67L10 66L11 66L11 67L12 67L12 68L13 68L13 69L16 69L16 70L17 70L17 69L16 69L16 68L13 68L13 66L14 66L14 67L16 67L16 65L15 65L15 66L14 66L14 65L13 65L13 66L11 66L11 65L10 65L10 64L9 64L9 65L10 65L10 66L8 66L8 64L7 64L7 63L6 63L6 64L7 64L7 65L5 65L5 62ZM8 62L8 63L9 63L9 62ZM35 62L35 63L36 63L36 62ZM57 62L57 63L58 63L58 62ZM21 63L21 64L22 64L22 63ZM27 63L27 64L28 64L28 63ZM32 63L32 64L33 64L33 63ZM39 63L39 64L40 64L40 63ZM6 66L6 67L7 67L7 66ZM24 66L24 67L25 67L25 66ZM61 66L61 67L62 67L62 66ZM63 66L63 67L64 67L64 66ZM2 67L2 69L1 69L1 70L4 70L4 67ZM41 67L41 68L42 68L42 67ZM49 67L49 68L50 68L50 67ZM54 67L54 68L55 68L55 67ZM6 68L6 69L7 69L7 68ZM9 68L9 69L10 69L10 68ZM22 68L22 69L23 69L23 68ZM65 68L65 69L66 69L66 70L68 70L68 69L66 69L66 68ZM47 69L47 70L48 70L48 69ZM75 69L75 70L76 70L76 71L77 71L77 70L76 70L76 69ZM19 70L19 71L20 71L20 70ZM47 71L47 72L46 72L46 73L47 73L47 72L48 72L48 71ZM18 73L18 74L17 74L17 75L20 75L20 74L19 74L19 73ZM25 73L25 76L28 76L28 73ZM49 73L49 76L52 76L52 73ZM73 73L73 76L76 76L76 73ZM26 74L26 75L27 75L27 74ZM31 74L31 75L32 75L32 74ZM35 74L35 76L36 76L36 77L38 77L38 76L37 76L37 75L38 75L38 74ZM50 74L50 75L51 75L51 74ZM60 74L60 75L61 75L61 74ZM74 74L74 75L75 75L75 74ZM77 75L77 76L78 76L78 77L79 77L79 76L80 76L80 75L79 75L79 76L78 76L78 75ZM12 76L12 79L13 79L13 76ZM18 76L18 77L19 77L19 76ZM64 76L64 77L65 77L65 76ZM26 77L26 78L27 78L27 77ZM31 77L31 78L32 78L32 77ZM43 77L43 78L44 78L44 77ZM49 77L49 78L50 78L50 77ZM56 77L56 78L57 78L57 80L59 80L59 79L58 79L58 78L57 78L57 77ZM22 78L22 79L23 79L23 78ZM64 78L64 79L65 79L65 80L66 80L66 79L68 79L68 78L66 78L66 79L65 79L65 78ZM72 78L72 81L73 81L73 79L75 79L75 80L74 80L74 81L76 81L76 80L77 80L77 81L80 81L80 80L81 80L81 79L79 79L79 80L77 80L77 79L75 79L75 78ZM16 80L16 81L18 81L18 80Z" fill="#000000"/></g></g></svg>
